G75*
%MOIN*%
%OFA0B0*%
%FSLAX24Y24*%
%IPPOS*%
%LPD*%
%AMOC8*
5,1,8,0,0,1.08239X$1,22.5*
%
%ADD10C,0.0100*%
%ADD11C,0.0120*%
%ADD12C,0.0070*%
%ADD13C,0.0050*%
%ADD14C,0.0080*%
%ADD15C,0.0090*%
%ADD16C,0.0060*%
%ADD17C,0.0180*%
%ADD18C,0.0030*%
%ADD19C,0.0000*%
%ADD20C,0.0150*%
%ADD21R,0.0079X0.0079*%
%ADD22C,0.0028*%
%ADD23R,0.0276X0.0118*%
%ADD24R,0.0118X0.0276*%
%ADD25C,0.0020*%
%ADD26R,0.0620X0.0240*%
%ADD27C,0.0040*%
D10*
X000874Y001963D02*
X026086Y001963D01*
X026086Y001962D02*
X026125Y001964D01*
X026163Y001970D01*
X026200Y001979D01*
X026237Y001992D01*
X026272Y002009D01*
X026305Y002028D01*
X026336Y002051D01*
X026365Y002077D01*
X026391Y002106D01*
X026414Y002137D01*
X026433Y002170D01*
X026450Y002205D01*
X026463Y002242D01*
X026472Y002279D01*
X026478Y002317D01*
X026480Y002356D01*
X026480Y004413D01*
X027480Y005413D01*
X027480Y018313D01*
X026480Y019313D01*
X026480Y025813D01*
X025880Y026413D01*
X001124Y026413D01*
X001081Y026422D01*
X001037Y026427D01*
X000993Y026428D01*
X000949Y026426D01*
X000905Y026420D01*
X000862Y026410D01*
X000820Y026397D01*
X000779Y026381D01*
X000739Y026361D01*
X000702Y026338D01*
X000666Y026312D01*
X000633Y026283D01*
X000602Y026251D01*
X000574Y026217D01*
X000549Y026181D01*
X000526Y026143D01*
X000508Y026103D01*
X000492Y026062D01*
X000480Y026019D01*
X000480Y002356D01*
X000482Y002317D01*
X000488Y002279D01*
X000497Y002242D01*
X000510Y002205D01*
X000527Y002170D01*
X000546Y002137D01*
X000569Y002106D01*
X000595Y002077D01*
X000624Y002051D01*
X000655Y002028D01*
X000688Y002009D01*
X000723Y001992D01*
X000760Y001979D01*
X000797Y001970D01*
X000835Y001964D01*
X000874Y001962D01*
X020444Y008338D02*
X020446Y008358D01*
X020451Y008378D01*
X020461Y008396D01*
X020473Y008413D01*
X020488Y008427D01*
X020506Y008437D01*
X020525Y008445D01*
X020545Y008449D01*
X020565Y008449D01*
X020585Y008445D01*
X020604Y008437D01*
X020622Y008427D01*
X020637Y008413D01*
X020649Y008396D01*
X020659Y008378D01*
X020664Y008358D01*
X020666Y008338D01*
X020664Y008318D01*
X020659Y008298D01*
X020649Y008280D01*
X020637Y008263D01*
X020622Y008249D01*
X020604Y008239D01*
X020585Y008231D01*
X020565Y008227D01*
X020545Y008227D01*
X020525Y008231D01*
X020506Y008239D01*
X020488Y008249D01*
X020473Y008263D01*
X020461Y008280D01*
X020451Y008298D01*
X020446Y008318D01*
X020444Y008338D01*
X014406Y017263D02*
X014408Y017292D01*
X014414Y017321D01*
X014423Y017349D01*
X014436Y017375D01*
X014452Y017399D01*
X014472Y017421D01*
X014494Y017441D01*
X014518Y017457D01*
X014544Y017470D01*
X014572Y017479D01*
X014601Y017485D01*
X014630Y017487D01*
X014659Y017485D01*
X014688Y017479D01*
X014716Y017470D01*
X014742Y017457D01*
X014766Y017441D01*
X014788Y017421D01*
X014808Y017399D01*
X014824Y017375D01*
X014837Y017349D01*
X014846Y017321D01*
X014852Y017292D01*
X014854Y017263D01*
X014852Y017234D01*
X014846Y017205D01*
X014837Y017177D01*
X014824Y017151D01*
X014808Y017127D01*
X014788Y017105D01*
X014766Y017085D01*
X014742Y017069D01*
X014716Y017056D01*
X014688Y017047D01*
X014659Y017041D01*
X014630Y017039D01*
X014601Y017041D01*
X014572Y017047D01*
X014544Y017056D01*
X014518Y017069D01*
X014494Y017085D01*
X014472Y017105D01*
X014452Y017127D01*
X014436Y017151D01*
X014423Y017177D01*
X014414Y017205D01*
X014408Y017234D01*
X014406Y017263D01*
X013524Y017213D02*
X013526Y017241D01*
X013532Y017269D01*
X013541Y017295D01*
X013554Y017320D01*
X013570Y017343D01*
X013589Y017364D01*
X013611Y017381D01*
X013635Y017396D01*
X013661Y017407D01*
X013688Y017415D01*
X013716Y017419D01*
X013744Y017419D01*
X013772Y017415D01*
X013799Y017407D01*
X013825Y017396D01*
X013849Y017381D01*
X013871Y017364D01*
X013890Y017343D01*
X013906Y017320D01*
X013919Y017295D01*
X013928Y017269D01*
X013934Y017241D01*
X013936Y017213D01*
X013934Y017185D01*
X013928Y017157D01*
X013919Y017131D01*
X013906Y017106D01*
X013890Y017083D01*
X013871Y017062D01*
X013849Y017045D01*
X013825Y017030D01*
X013799Y017019D01*
X013772Y017011D01*
X013744Y017007D01*
X013716Y017007D01*
X013688Y017011D01*
X013661Y017019D01*
X013635Y017030D01*
X013611Y017045D01*
X013589Y017062D01*
X013570Y017083D01*
X013554Y017106D01*
X013541Y017131D01*
X013532Y017157D01*
X013526Y017185D01*
X013524Y017213D01*
X012668Y017163D02*
X012670Y017192D01*
X012676Y017220D01*
X012686Y017247D01*
X012699Y017273D01*
X012716Y017297D01*
X012735Y017318D01*
X012758Y017336D01*
X012782Y017351D01*
X012809Y017363D01*
X012837Y017371D01*
X012866Y017375D01*
X012894Y017375D01*
X012923Y017371D01*
X012951Y017363D01*
X012978Y017351D01*
X013002Y017336D01*
X013025Y017318D01*
X013044Y017297D01*
X013061Y017273D01*
X013074Y017247D01*
X013084Y017220D01*
X013090Y017192D01*
X013092Y017163D01*
X013090Y017134D01*
X013084Y017106D01*
X013074Y017079D01*
X013061Y017053D01*
X013044Y017029D01*
X013025Y017008D01*
X013002Y016990D01*
X012978Y016975D01*
X012951Y016963D01*
X012923Y016955D01*
X012894Y016951D01*
X012866Y016951D01*
X012837Y016955D01*
X012809Y016963D01*
X012782Y016975D01*
X012758Y016990D01*
X012735Y017008D01*
X012716Y017029D01*
X012699Y017053D01*
X012686Y017079D01*
X012676Y017106D01*
X012670Y017134D01*
X012668Y017163D01*
X014424Y018063D02*
X014426Y018091D01*
X014432Y018119D01*
X014441Y018145D01*
X014454Y018170D01*
X014470Y018193D01*
X014489Y018214D01*
X014511Y018231D01*
X014535Y018246D01*
X014561Y018257D01*
X014588Y018265D01*
X014616Y018269D01*
X014644Y018269D01*
X014672Y018265D01*
X014699Y018257D01*
X014725Y018246D01*
X014749Y018231D01*
X014771Y018214D01*
X014790Y018193D01*
X014806Y018170D01*
X014819Y018145D01*
X014828Y018119D01*
X014834Y018091D01*
X014836Y018063D01*
X014834Y018035D01*
X014828Y018007D01*
X014819Y017981D01*
X014806Y017956D01*
X014790Y017933D01*
X014771Y017912D01*
X014749Y017895D01*
X014725Y017880D01*
X014699Y017869D01*
X014672Y017861D01*
X014644Y017857D01*
X014616Y017857D01*
X014588Y017861D01*
X014561Y017869D01*
X014535Y017880D01*
X014511Y017895D01*
X014489Y017912D01*
X014470Y017933D01*
X014454Y017956D01*
X014441Y017981D01*
X014432Y018007D01*
X014426Y018035D01*
X014424Y018063D01*
X013518Y018863D02*
X013520Y018892D01*
X013526Y018920D01*
X013536Y018947D01*
X013549Y018973D01*
X013566Y018997D01*
X013585Y019018D01*
X013608Y019036D01*
X013632Y019051D01*
X013659Y019063D01*
X013687Y019071D01*
X013716Y019075D01*
X013744Y019075D01*
X013773Y019071D01*
X013801Y019063D01*
X013828Y019051D01*
X013852Y019036D01*
X013875Y019018D01*
X013894Y018997D01*
X013911Y018973D01*
X013924Y018947D01*
X013934Y018920D01*
X013940Y018892D01*
X013942Y018863D01*
X013940Y018834D01*
X013934Y018806D01*
X013924Y018779D01*
X013911Y018753D01*
X013894Y018729D01*
X013875Y018708D01*
X013852Y018690D01*
X013828Y018675D01*
X013801Y018663D01*
X013773Y018655D01*
X013744Y018651D01*
X013716Y018651D01*
X013687Y018655D01*
X013659Y018663D01*
X013632Y018675D01*
X013608Y018690D01*
X013585Y018708D01*
X013566Y018729D01*
X013549Y018753D01*
X013536Y018779D01*
X013526Y018806D01*
X013520Y018834D01*
X013518Y018863D01*
X014894Y024049D02*
X015175Y024049D01*
X015268Y024142D01*
X015268Y024516D01*
X015175Y024609D01*
X014894Y024609D01*
X014894Y024049D01*
X015502Y024049D02*
X015689Y024049D01*
X015595Y024049D02*
X015595Y024609D01*
X015502Y024609D02*
X015689Y024609D01*
X015907Y024516D02*
X015907Y024142D01*
X016001Y024049D01*
X016187Y024049D01*
X016281Y024142D01*
X016281Y024329D01*
X016094Y024329D01*
X015907Y024516D02*
X016001Y024609D01*
X016187Y024609D01*
X016281Y024516D01*
X016515Y024609D02*
X016702Y024609D01*
X016608Y024609D02*
X016608Y024049D01*
X016515Y024049D02*
X016702Y024049D01*
X017107Y024049D02*
X017107Y024609D01*
X016920Y024609D02*
X017294Y024609D01*
X017528Y024422D02*
X017715Y024609D01*
X017901Y024422D01*
X017901Y024049D01*
X018135Y024049D02*
X018509Y024049D01*
X018135Y024049D02*
X018135Y024609D01*
X017901Y024329D02*
X017528Y024329D01*
X017528Y024422D02*
X017528Y024049D01*
X002150Y019813D02*
X002150Y017013D01*
X001450Y017013D01*
X001450Y016713D01*
X000650Y016713D01*
X000650Y017013D01*
X000150Y017013D01*
X000150Y019813D01*
X000650Y019813D01*
X000650Y020113D01*
X001450Y020113D01*
X001450Y019813D01*
X002150Y019813D01*
D11*
X011530Y024213D02*
X011730Y024413D01*
X014480Y024413D01*
X014980Y025913D02*
X014980Y026413D01*
X013730Y026413D01*
X013730Y025913D01*
X012730Y025913D02*
X012730Y027413D01*
X019480Y027413D01*
X019480Y025913D01*
X021980Y024363D02*
X025730Y024363D01*
X025880Y024213D01*
X025880Y021913D02*
X025180Y021913D01*
X025530Y021563D01*
X025880Y021913D01*
X025730Y021863D02*
X025530Y021663D01*
X025380Y021813D01*
X025580Y021813D01*
X025530Y021763D02*
X025530Y021713D01*
X025330Y021863D02*
X025730Y021863D01*
X024830Y021563D02*
X024480Y021913D01*
X024130Y021563D01*
X024830Y021563D01*
X024680Y021613D02*
X024380Y021613D01*
X024530Y021713D01*
X024480Y021813D02*
X024680Y021613D01*
X024480Y021813D02*
X024280Y021613D01*
X015380Y017713D02*
X012230Y017563D01*
X012130Y016763D02*
X015530Y016913D01*
X015130Y016663D02*
X015080Y019663D01*
X015330Y019213D02*
X012230Y019313D01*
X012580Y019613D02*
X012430Y016613D01*
X013280Y016563D02*
X013330Y019613D01*
X014130Y019613D02*
X014230Y016663D01*
X015330Y018513D02*
X012330Y018413D01*
X020180Y005613D02*
X025780Y005613D01*
D12*
X018750Y005667D02*
X018750Y005830D01*
X018750Y005748D02*
X018260Y005748D01*
X018260Y005667D02*
X018260Y005830D01*
X018260Y006010D02*
X018750Y006337D01*
X018260Y006337D01*
X018260Y006010D02*
X018750Y006010D01*
X018587Y005478D02*
X018260Y005478D01*
X018587Y005478D02*
X018750Y005314D01*
X018587Y005151D01*
X018260Y005151D01*
X017750Y005233D02*
X017750Y005396D01*
X017668Y005478D01*
X017505Y005478D01*
X017505Y005314D01*
X017668Y005151D02*
X017750Y005233D01*
X017668Y005151D02*
X017342Y005151D01*
X017260Y005233D01*
X017260Y005396D01*
X017342Y005478D01*
X017260Y005667D02*
X017750Y005994D01*
X017260Y005994D01*
X017260Y006182D02*
X017260Y006427D01*
X017342Y006509D01*
X017668Y006509D01*
X017750Y006427D01*
X017750Y006182D01*
X017260Y006182D01*
X016750Y006182D02*
X016750Y006427D01*
X016668Y006509D01*
X016342Y006509D01*
X016260Y006427D01*
X016260Y006182D01*
X016750Y006182D01*
X016750Y005994D02*
X016260Y005994D01*
X016260Y005667D02*
X016750Y005994D01*
X016750Y005667D02*
X016260Y005667D01*
X016342Y005478D02*
X016260Y005396D01*
X016260Y005233D01*
X016342Y005151D01*
X016668Y005151D01*
X016750Y005233D01*
X016750Y005396D01*
X016668Y005478D01*
X016505Y005478D01*
X016505Y005314D01*
X015750Y005233D02*
X015668Y005151D01*
X015750Y005233D02*
X015750Y005396D01*
X015668Y005478D01*
X015505Y005478D01*
X015423Y005396D01*
X015423Y005314D01*
X015505Y005151D01*
X015260Y005151D01*
X015260Y005478D01*
X015260Y005667D02*
X015587Y005667D01*
X015750Y005830D01*
X015587Y005994D01*
X015260Y005994D01*
X017260Y005667D02*
X017750Y005667D01*
X008808Y015948D02*
X008481Y016438D01*
X008292Y016438D02*
X007965Y016438D01*
X008128Y016438D02*
X008128Y015948D01*
X008481Y015948D02*
X008808Y016438D01*
X008808Y017148D02*
X008481Y017638D01*
X008292Y017556D02*
X008210Y017638D01*
X007965Y017638D01*
X007965Y017148D01*
X007965Y017311D02*
X008210Y017311D01*
X008292Y017393D01*
X008292Y017556D01*
X008128Y017311D02*
X008292Y017148D01*
X008481Y017148D02*
X008808Y017638D01*
X008808Y018398D02*
X008808Y018888D01*
X008481Y018888D02*
X008808Y018398D01*
X008481Y018398D02*
X008481Y018888D01*
X008292Y018806D02*
X008210Y018888D01*
X008047Y018888D01*
X007965Y018806D01*
X007965Y018479D01*
X008047Y018398D01*
X008210Y018398D01*
X008292Y018479D01*
X008292Y018806D01*
X011843Y021519D02*
X011986Y021663D01*
X011915Y021735D01*
X011843Y021519D02*
X011915Y021448D01*
X013793Y021519D02*
X013936Y021663D01*
X013865Y021735D01*
X013793Y021519D02*
X013865Y021448D01*
X014843Y021519D02*
X014986Y021663D01*
X014915Y021735D01*
X014843Y021519D02*
X014915Y021448D01*
X015793Y021969D02*
X015936Y022113D01*
X015865Y022185D01*
X015793Y021969D02*
X015865Y021898D01*
X019493Y021969D02*
X019636Y022113D01*
X019565Y022185D01*
X019493Y021969D02*
X019565Y021898D01*
X020443Y021969D02*
X020586Y022113D01*
X020515Y022185D01*
X020443Y021969D02*
X020515Y021898D01*
X022393Y021969D02*
X022536Y022113D01*
X022465Y022185D01*
X022393Y021969D02*
X022465Y021898D01*
X019752Y024378D02*
X019680Y024306D01*
X019537Y024450D01*
X019465Y024378D01*
D13*
X021250Y022238D02*
X021600Y022005D01*
X021542Y021870D02*
X021483Y021870D01*
X021425Y021812D01*
X021425Y021637D01*
X021542Y021637D01*
X021600Y021695D01*
X021600Y021812D01*
X021542Y021870D01*
X021425Y021637D02*
X021308Y021753D01*
X021250Y021870D01*
X021367Y021502D02*
X021250Y021385D01*
X021367Y021268D01*
X021600Y021268D01*
X021425Y021268D02*
X021425Y021502D01*
X021367Y021502D02*
X021600Y021502D01*
X019700Y021605D02*
X019350Y021838D01*
X019350Y021470D02*
X019408Y021470D01*
X019642Y021237D01*
X019700Y021237D01*
X019700Y021102D02*
X019467Y021102D01*
X019350Y020985D01*
X019467Y020868D01*
X019700Y020868D01*
X019525Y020868D02*
X019525Y021102D01*
X019350Y021237D02*
X019350Y021470D01*
X018650Y021471D02*
X018650Y021354D01*
X018592Y021296D01*
X018358Y021529D01*
X018592Y021529D01*
X018650Y021471D01*
X018592Y021296D02*
X018358Y021296D01*
X018300Y021354D01*
X018300Y021471D01*
X018358Y021529D01*
X018300Y021664D02*
X018417Y021781D01*
X018533Y021781D01*
X018650Y021664D01*
X018650Y021910D02*
X018300Y022143D01*
X017050Y021955D02*
X016700Y022188D01*
X016758Y021820D02*
X016817Y021820D01*
X016875Y021762D01*
X016875Y021645D01*
X016817Y021587D01*
X016758Y021587D01*
X016700Y021645D01*
X016700Y021762D01*
X016758Y021820D01*
X016875Y021762D02*
X016933Y021820D01*
X016992Y021820D01*
X017050Y021762D01*
X017050Y021645D01*
X016992Y021587D01*
X016933Y021587D01*
X016875Y021645D01*
X016875Y021452D02*
X016875Y021218D01*
X016817Y021218D02*
X016700Y021335D01*
X016817Y021452D01*
X017050Y021452D01*
X017050Y021218D02*
X016817Y021218D01*
X016100Y021195D02*
X016100Y021312D01*
X016042Y021370D01*
X015808Y021370D01*
X015750Y021312D01*
X015750Y021195D01*
X015808Y021137D01*
X015867Y021137D01*
X015925Y021195D01*
X015925Y021370D01*
X016100Y021505D02*
X015750Y021738D01*
X016100Y021195D02*
X016042Y021137D01*
X016100Y021002D02*
X015867Y021002D01*
X015750Y020885D01*
X015867Y020768D01*
X016100Y020768D01*
X015925Y020768D02*
X015925Y021002D01*
X015050Y020980D02*
X015050Y020863D01*
X014992Y020805D01*
X014758Y021038D01*
X014992Y021038D01*
X015050Y020980D01*
X014992Y020805D02*
X014758Y020805D01*
X014700Y020863D01*
X014700Y020980D01*
X014758Y021038D01*
X015050Y021173D02*
X014700Y021407D01*
X015050Y020670D02*
X015050Y020437D01*
X015050Y020553D02*
X014700Y020553D01*
X014817Y020437D01*
X014817Y020302D02*
X015050Y020302D01*
X014875Y020302D02*
X014875Y020068D01*
X014817Y020068D02*
X014700Y020185D01*
X014817Y020302D01*
X014817Y020068D02*
X015050Y020068D01*
X013050Y020318D02*
X012817Y020318D01*
X012700Y020435D01*
X012817Y020552D01*
X013050Y020552D01*
X013050Y020687D02*
X013050Y020920D01*
X013050Y020803D02*
X012700Y020803D01*
X012817Y020687D01*
X012875Y020552D02*
X012875Y020318D01*
X012817Y021055D02*
X012700Y021172D01*
X013050Y021172D01*
X013050Y021288D02*
X013050Y021055D01*
X013050Y021423D02*
X012700Y021657D01*
X018300Y021161D02*
X018650Y021161D01*
X018300Y020928D01*
X018650Y020928D01*
X018650Y020799D02*
X018650Y020682D01*
X018650Y020740D02*
X018300Y020740D01*
X018300Y020682D02*
X018300Y020799D01*
X018417Y020547D02*
X018650Y020547D01*
X018475Y020547D02*
X018475Y020314D01*
X018417Y020314D02*
X018300Y020431D01*
X018417Y020547D01*
X018417Y020314D02*
X018650Y020314D01*
X018650Y020185D02*
X018533Y020068D01*
X018417Y020068D01*
X018300Y020185D01*
X025494Y016348D02*
X025611Y016348D01*
X025553Y016348D02*
X025553Y015998D01*
X025611Y015998D02*
X025494Y015998D01*
X025740Y016056D02*
X025740Y016290D01*
X025798Y016348D01*
X025915Y016348D01*
X025973Y016290D01*
X026108Y016290D02*
X026108Y016231D01*
X026167Y016173D01*
X026283Y016173D01*
X026342Y016115D01*
X026342Y016056D01*
X026283Y015998D01*
X026167Y015998D01*
X026108Y016056D01*
X025973Y016056D02*
X025915Y015998D01*
X025798Y015998D01*
X025740Y016056D01*
X026108Y016290D02*
X026167Y016348D01*
X026283Y016348D01*
X026342Y016290D01*
X026477Y016348D02*
X026477Y015998D01*
X026477Y016115D02*
X026652Y016115D01*
X026710Y016173D01*
X026710Y016290D01*
X026652Y016348D01*
X026477Y016348D01*
X022230Y014424D02*
X022230Y013440D01*
X020222Y014033D02*
X020222Y015293D01*
X019238Y015293D01*
X019238Y014033D01*
X020222Y014033D01*
X024521Y012407D02*
X024521Y012232D01*
X024580Y012173D01*
X024697Y012173D01*
X024755Y012232D01*
X024755Y012407D01*
X025105Y012382D02*
X025455Y012382D01*
X025455Y012207D01*
X025397Y012149D01*
X025280Y012149D01*
X025221Y012207D01*
X025221Y012382D01*
X025280Y012517D02*
X025397Y012517D01*
X025455Y012575D01*
X025455Y012692D01*
X025397Y012750D01*
X025280Y012750D01*
X025221Y012692D01*
X025221Y012575D01*
X025280Y012517D01*
X025221Y012017D02*
X025221Y011958D01*
X025338Y011842D01*
X025455Y011842D02*
X025221Y011842D01*
X025280Y011707D02*
X025455Y011707D01*
X025455Y011532D01*
X025397Y011473D01*
X025338Y011532D01*
X025338Y011707D01*
X025280Y011707D02*
X025221Y011648D01*
X025221Y011532D01*
X025280Y011339D02*
X025455Y011339D01*
X025280Y011339D02*
X025221Y011280D01*
X025221Y011105D01*
X025455Y011105D01*
X025397Y010970D02*
X025280Y010970D01*
X025221Y010912D01*
X025221Y010795D01*
X025280Y010737D01*
X025397Y010737D01*
X025455Y010795D01*
X025455Y010912D01*
X025397Y010970D01*
X025655Y011039D02*
X025655Y011097D01*
X026005Y011097D01*
X026005Y011039D02*
X026005Y011155D01*
X025947Y011284D02*
X026005Y011343D01*
X026005Y011459D01*
X025888Y011518D02*
X025888Y011284D01*
X025830Y011284D02*
X025771Y011343D01*
X025771Y011459D01*
X025830Y011518D01*
X025888Y011518D01*
X025947Y011284D02*
X025830Y011284D01*
X025830Y010904D02*
X025771Y010845D01*
X025771Y010670D01*
X025655Y010670D02*
X026005Y010670D01*
X026005Y010845D01*
X025947Y010904D01*
X025830Y010904D01*
X026005Y010542D02*
X026005Y010425D01*
X026005Y010483D02*
X025771Y010483D01*
X025771Y010425D01*
X025771Y010296D02*
X025771Y010179D01*
X025713Y010238D02*
X025947Y010238D01*
X026005Y010296D01*
X026005Y010044D02*
X025830Y010044D01*
X025771Y009986D01*
X025771Y009869D01*
X025888Y009869D02*
X025888Y010044D01*
X026005Y010044D02*
X026005Y009869D01*
X025947Y009811D01*
X025888Y009869D01*
X025830Y009676D02*
X025947Y009676D01*
X026005Y009618D01*
X026005Y009443D01*
X026122Y009443D02*
X025771Y009443D01*
X025771Y009618D01*
X025830Y009676D01*
X025455Y009439D02*
X025397Y009497D01*
X025280Y009497D01*
X025221Y009439D01*
X025221Y009322D01*
X025280Y009263D01*
X025397Y009263D01*
X025455Y009322D01*
X025455Y009439D01*
X025455Y009129D02*
X025280Y009129D01*
X025221Y009070D01*
X025221Y008895D01*
X025455Y008895D01*
X025455Y008766D02*
X025455Y008650D01*
X025455Y008708D02*
X025221Y008708D01*
X025221Y008650D01*
X025105Y008708D02*
X025046Y008708D01*
X025221Y008515D02*
X025455Y008515D01*
X025455Y008340D01*
X025397Y008281D01*
X025221Y008281D01*
X025221Y008146D02*
X025221Y007971D01*
X025280Y007913D01*
X025397Y007913D01*
X025455Y007971D01*
X025455Y008146D01*
X025105Y008146D01*
X024755Y008113D02*
X024697Y008171D01*
X024521Y008171D01*
X024521Y008306D02*
X024697Y008306D01*
X024755Y008364D01*
X024697Y008423D01*
X024755Y008481D01*
X024697Y008540D01*
X024521Y008540D01*
X024521Y008674D02*
X024697Y008674D01*
X024755Y008733D01*
X024697Y008791D01*
X024755Y008849D01*
X024697Y008908D01*
X024521Y008908D01*
X024697Y009043D02*
X024697Y009101D01*
X024755Y009101D01*
X024755Y009043D01*
X024697Y009043D01*
X024697Y009227D02*
X024638Y009285D01*
X024638Y009460D01*
X024580Y009460D02*
X024755Y009460D01*
X024755Y009285D01*
X024697Y009227D01*
X024521Y009285D02*
X024521Y009402D01*
X024580Y009460D01*
X024638Y009595D02*
X024521Y009712D01*
X024521Y009770D01*
X024580Y009902D02*
X024521Y009960D01*
X024521Y010136D01*
X024405Y010136D02*
X024755Y010136D01*
X024755Y009960D01*
X024697Y009902D01*
X024580Y009902D01*
X024521Y009595D02*
X024755Y009595D01*
X025105Y010000D02*
X025455Y010000D01*
X025455Y010234D01*
X025397Y010368D02*
X025280Y010368D01*
X025221Y010427D01*
X025221Y010544D01*
X025280Y010602D01*
X025338Y010602D01*
X025338Y010368D01*
X025397Y010368D02*
X025455Y010427D01*
X025455Y010544D01*
X025596Y010483D02*
X025655Y010483D01*
X024755Y010504D02*
X024521Y010504D01*
X024521Y010639D02*
X024521Y010697D01*
X024755Y010697D01*
X024755Y010639D02*
X024755Y010755D01*
X024755Y010884D02*
X024521Y010884D01*
X024521Y011059D01*
X024580Y011118D01*
X024755Y011118D01*
X024697Y011253D02*
X024755Y011311D01*
X024755Y011428D01*
X024697Y011486D01*
X024580Y011486D01*
X024521Y011428D01*
X024521Y011311D01*
X024580Y011253D01*
X024697Y011253D01*
X024697Y011621D02*
X024697Y011679D01*
X024755Y011679D01*
X024755Y011621D01*
X024697Y011621D01*
X024697Y011805D02*
X024755Y011863D01*
X024755Y012039D01*
X024521Y012039D02*
X024521Y011863D01*
X024580Y011805D01*
X024697Y011805D01*
X024405Y010697D02*
X024346Y010697D01*
X024755Y010504D02*
X024755Y010329D01*
X024697Y010270D01*
X024521Y010270D01*
X025771Y009249D02*
X025830Y009308D01*
X026005Y009308D01*
X026005Y009191D02*
X025830Y009191D01*
X025771Y009249D01*
X025830Y009191D02*
X025771Y009133D01*
X025771Y009074D01*
X026005Y009074D01*
X025947Y008940D02*
X026005Y008881D01*
X026005Y008764D01*
X025947Y008706D01*
X025830Y008706D01*
X025771Y008764D01*
X025771Y008881D01*
X025830Y008940D01*
X025947Y008940D01*
X025947Y008571D02*
X026005Y008513D01*
X026005Y008396D01*
X025947Y008338D01*
X025713Y008338D01*
X025655Y008396D01*
X025655Y008513D01*
X025713Y008571D01*
X026605Y008308D02*
X026955Y008308D01*
X026955Y008133D01*
X026897Y008074D01*
X026780Y008074D01*
X026721Y008133D01*
X026721Y008308D01*
X026780Y008443D02*
X026721Y008501D01*
X026721Y008618D01*
X026780Y008676D01*
X026838Y008676D01*
X026838Y008443D01*
X026780Y008443D02*
X026897Y008443D01*
X026955Y008501D01*
X026955Y008618D01*
X026955Y009179D02*
X026955Y009296D01*
X026955Y009238D02*
X026605Y009238D01*
X026605Y009296D02*
X026605Y009179D01*
X026721Y009425D02*
X026721Y009600D01*
X026780Y009658D01*
X026955Y009658D01*
X026955Y009425D02*
X026721Y009425D01*
X026663Y010161D02*
X026897Y010161D01*
X026955Y010220D01*
X026955Y010337D01*
X026897Y010395D01*
X026897Y010530D02*
X026780Y010530D01*
X026721Y010588D01*
X026721Y010705D01*
X026780Y010763D01*
X026897Y010763D01*
X026955Y010705D01*
X026955Y010588D01*
X026897Y010530D01*
X026663Y010395D02*
X026605Y010337D01*
X026605Y010220D01*
X026663Y010161D01*
X026605Y010898D02*
X026605Y010956D01*
X026955Y010956D01*
X026955Y010898D02*
X026955Y011015D01*
X026897Y011144D02*
X026780Y011144D01*
X026721Y011202D01*
X026721Y011319D01*
X026780Y011377D01*
X026897Y011377D01*
X026955Y011319D01*
X026955Y011202D01*
X026897Y011144D01*
X026955Y011512D02*
X026721Y011512D01*
X026721Y011570D01*
X026780Y011629D01*
X026721Y011687D01*
X026780Y011745D01*
X026955Y011745D01*
X026955Y011629D02*
X026780Y011629D01*
X026721Y011880D02*
X026721Y012055D01*
X026780Y012114D01*
X026897Y012114D01*
X026955Y012055D01*
X026955Y011880D01*
X026605Y011880D01*
X026721Y012249D02*
X026721Y012307D01*
X026955Y012307D01*
X026955Y012249D02*
X026955Y012365D01*
X026897Y012494D02*
X026838Y012552D01*
X026838Y012728D01*
X026780Y012728D02*
X026955Y012728D01*
X026955Y012552D01*
X026897Y012494D01*
X026721Y012552D02*
X026721Y012669D01*
X026780Y012728D01*
X026605Y012307D02*
X026546Y012307D01*
X024755Y008113D02*
X024697Y008054D01*
X024755Y007996D01*
X024697Y007938D01*
X024521Y007938D01*
X025221Y007781D02*
X025221Y007723D01*
X025338Y007606D01*
X025455Y007606D02*
X025221Y007606D01*
X025221Y007471D02*
X025455Y007471D01*
X025280Y007471D02*
X025280Y007238D01*
X025221Y007238D02*
X025105Y007354D01*
X025221Y007471D01*
X025221Y007238D02*
X025455Y007238D01*
X026605Y007338D02*
X026721Y007454D01*
X026605Y007571D01*
X026955Y007571D01*
X026897Y007706D02*
X026838Y007764D01*
X026838Y007940D01*
X026780Y007940D02*
X026955Y007940D01*
X026955Y007764D01*
X026897Y007706D01*
X026721Y007764D02*
X026721Y007881D01*
X026780Y007940D01*
X026955Y007338D02*
X026605Y007338D01*
X025787Y005493D02*
X025554Y005493D01*
X025554Y005318D01*
X025671Y005376D01*
X025729Y005376D01*
X025787Y005318D01*
X025787Y005201D01*
X025729Y005142D01*
X025612Y005142D01*
X025554Y005201D01*
X025419Y005142D02*
X025419Y005376D01*
X025302Y005493D01*
X025186Y005376D01*
X025186Y005142D01*
X025186Y005318D02*
X025419Y005318D01*
X024787Y005318D02*
X024554Y005318D01*
X024729Y005493D01*
X024729Y005142D01*
X024419Y005142D02*
X024419Y005376D01*
X024302Y005493D01*
X024186Y005376D01*
X024186Y005142D01*
X024186Y005318D02*
X024419Y005318D01*
X023787Y005376D02*
X023729Y005318D01*
X023787Y005259D01*
X023787Y005201D01*
X023729Y005142D01*
X023612Y005142D01*
X023554Y005201D01*
X023419Y005142D02*
X023419Y005376D01*
X023302Y005493D01*
X023186Y005376D01*
X023186Y005142D01*
X023186Y005318D02*
X023419Y005318D01*
X023554Y005434D02*
X023612Y005493D01*
X023729Y005493D01*
X023787Y005434D01*
X023787Y005376D01*
X023729Y005318D02*
X023671Y005318D01*
X022787Y005376D02*
X022787Y005434D01*
X022729Y005493D01*
X022612Y005493D01*
X022554Y005434D01*
X022419Y005376D02*
X022302Y005493D01*
X022186Y005376D01*
X022186Y005142D01*
X022186Y005318D02*
X022419Y005318D01*
X022419Y005376D02*
X022419Y005142D01*
X022554Y005142D02*
X022787Y005376D01*
X022787Y005142D02*
X022554Y005142D01*
X021787Y005142D02*
X021554Y005142D01*
X021671Y005142D02*
X021671Y005493D01*
X021554Y005376D01*
X021419Y005376D02*
X021419Y005142D01*
X021419Y005318D02*
X021186Y005318D01*
X021186Y005376D02*
X021302Y005493D01*
X021419Y005376D01*
X021186Y005376D02*
X021186Y005142D01*
X020787Y005201D02*
X020787Y005434D01*
X020554Y005201D01*
X020612Y005142D01*
X020729Y005142D01*
X020787Y005201D01*
X020554Y005201D02*
X020554Y005434D01*
X020612Y005493D01*
X020729Y005493D01*
X020787Y005434D01*
X020419Y005376D02*
X020419Y005142D01*
X020419Y005318D02*
X020186Y005318D01*
X020186Y005376D02*
X020302Y005493D01*
X020419Y005376D01*
X020186Y005376D02*
X020186Y005142D01*
X007705Y005109D02*
X007705Y004808D01*
X007405Y005109D01*
X007330Y005109D01*
X007255Y005034D01*
X007255Y004884D01*
X007330Y004808D01*
X007255Y004648D02*
X007705Y004648D01*
X007555Y004498D01*
X007705Y004348D01*
X007255Y004348D01*
X007330Y004188D02*
X007255Y004113D01*
X007255Y003963D01*
X007330Y003888D01*
X007405Y003888D01*
X007480Y003963D01*
X007480Y004113D01*
X007555Y004188D01*
X007630Y004188D01*
X007705Y004113D01*
X007705Y003963D01*
X007630Y003888D01*
X004105Y003963D02*
X004030Y003888D01*
X004105Y003963D02*
X004105Y004113D01*
X004030Y004188D01*
X003955Y004188D01*
X003880Y004113D01*
X003880Y003963D01*
X003805Y003888D01*
X003730Y003888D01*
X003655Y003963D01*
X003655Y004113D01*
X003730Y004188D01*
X003655Y004348D02*
X004105Y004348D01*
X003955Y004498D01*
X004105Y004648D01*
X003655Y004648D01*
X003805Y004808D02*
X003655Y004959D01*
X004105Y004959D01*
X004105Y005109D02*
X004105Y004808D01*
X004468Y016413D02*
X005452Y016413D01*
D14*
X017090Y011645D02*
X017248Y011802D01*
X020712Y011802D01*
X020870Y011645D01*
X020870Y008180D01*
X020712Y008023D01*
X017248Y008023D01*
X017090Y008180D01*
X017090Y011645D01*
X023483Y013716D02*
X023877Y013716D01*
X023680Y014110D01*
X023483Y013716D01*
X023829Y006383D02*
X023990Y006383D01*
X023910Y006383D02*
X023910Y005903D01*
X023990Y005903D02*
X023829Y005903D01*
X024173Y005903D02*
X024173Y006383D01*
X024494Y005903D01*
X024494Y006383D01*
X023118Y006303D02*
X023038Y006383D01*
X022878Y006383D01*
X022798Y006303D01*
X022798Y005983D01*
X022878Y005903D01*
X023038Y005903D01*
X023118Y005983D01*
X023118Y006143D01*
X022958Y006143D01*
X022603Y005983D02*
X022603Y006303D01*
X022523Y006383D01*
X022363Y006383D01*
X022283Y006303D01*
X022283Y005983D01*
X022363Y005903D01*
X022523Y005903D01*
X022603Y005983D01*
X022087Y005903D02*
X021767Y005903D01*
X021767Y006383D01*
X021572Y006223D02*
X021572Y005903D01*
X021572Y006143D02*
X021251Y006143D01*
X021251Y006223D02*
X021411Y006383D01*
X021572Y006223D01*
X021251Y006223D02*
X021251Y005903D01*
X021056Y005903D02*
X021056Y006383D01*
X020736Y006383D02*
X021056Y005903D01*
X020736Y005903D02*
X020736Y006383D01*
X020540Y006223D02*
X020540Y005903D01*
X020540Y006143D02*
X020220Y006143D01*
X020220Y006223D02*
X020380Y006383D01*
X020540Y006223D01*
X020220Y006223D02*
X020220Y005903D01*
D15*
X020071Y016373D02*
X019735Y016373D01*
X019624Y016485D01*
X019735Y016597D01*
X020071Y016597D01*
X020071Y016709D02*
X020071Y016373D01*
X020323Y016485D02*
X020435Y016373D01*
X020770Y016373D01*
X021023Y016373D02*
X021023Y017044D01*
X020770Y016820D02*
X020435Y016820D01*
X020323Y016709D01*
X020323Y016485D01*
X020071Y016709D02*
X019959Y016820D01*
X019735Y016820D01*
X019371Y016709D02*
X019371Y016373D01*
X019371Y016709D02*
X019259Y016820D01*
X019036Y016820D01*
X018924Y016709D01*
X018686Y016485D02*
X018686Y016373D01*
X018574Y016373D01*
X018574Y016485D01*
X018686Y016485D01*
X018924Y016373D02*
X018924Y017044D01*
X018321Y016820D02*
X018321Y016485D01*
X018209Y016373D01*
X018098Y016485D01*
X017986Y016373D01*
X017874Y016485D01*
X017874Y016820D01*
X017621Y016820D02*
X017621Y016485D01*
X017510Y016373D01*
X017398Y016485D01*
X017286Y016373D01*
X017174Y016485D01*
X017174Y016820D01*
X016922Y016820D02*
X016922Y016485D01*
X016810Y016373D01*
X016698Y016485D01*
X016586Y016373D01*
X016475Y016485D01*
X016475Y016820D01*
X021023Y016597D02*
X021358Y016820D01*
X021606Y016820D02*
X021942Y016820D01*
X022053Y016709D01*
X022053Y016485D01*
X021942Y016373D01*
X021606Y016373D01*
X021606Y017044D01*
X021358Y016373D02*
X021023Y016597D01*
X022306Y016709D02*
X022306Y016485D01*
X022418Y016373D01*
X022641Y016373D01*
X022753Y016485D01*
X022753Y016709D01*
X022641Y016820D01*
X022418Y016820D01*
X022306Y016709D01*
X023006Y016485D02*
X023118Y016485D01*
X023118Y016373D01*
X023006Y016373D01*
X023006Y016485D01*
X023356Y016485D02*
X023356Y016709D01*
X023468Y016820D01*
X023803Y016820D01*
X024056Y016709D02*
X024056Y016485D01*
X024167Y016373D01*
X024391Y016373D01*
X024503Y016485D01*
X024503Y016709D01*
X024391Y016820D01*
X024167Y016820D01*
X024056Y016709D01*
X023803Y016373D02*
X023468Y016373D01*
X023356Y016485D01*
D16*
X024673Y015459D02*
X024786Y015572D01*
X024786Y015232D01*
X024673Y015232D02*
X024900Y015232D01*
X025030Y015163D02*
X025030Y015663D01*
X025280Y015913D01*
X026780Y015913D01*
X027030Y015663D01*
X027030Y015163D01*
X026780Y014913D01*
X025280Y014913D01*
X025030Y014663D01*
X025030Y014163D01*
X025280Y013913D01*
X025030Y013663D01*
X025030Y013163D01*
X025280Y012913D01*
X026780Y012913D01*
X027030Y013163D01*
X027030Y013663D01*
X026780Y013913D01*
X025280Y013913D01*
X026780Y013913D02*
X027030Y014163D01*
X027030Y014663D01*
X026780Y014913D01*
X025280Y014913D02*
X025030Y015163D01*
X025250Y020043D02*
X025250Y020293D01*
X025333Y020376D01*
X025500Y020376D01*
X025583Y020293D01*
X025583Y020043D01*
X025583Y020209D02*
X025750Y020376D01*
X025750Y020558D02*
X025250Y020892D01*
X025416Y021074D02*
X025250Y021241D01*
X025750Y021241D01*
X025750Y021074D02*
X025750Y021408D01*
X025750Y020892D02*
X025250Y020558D01*
X024748Y020563D02*
X024248Y020897D01*
X024415Y021079D02*
X024248Y021246D01*
X024748Y021246D01*
X024748Y021412D02*
X024748Y021079D01*
X024748Y020897D02*
X024248Y020563D01*
X024248Y020381D02*
X024248Y020047D01*
X024248Y020214D02*
X024748Y020214D01*
X025250Y020043D02*
X025750Y020043D01*
X025627Y022332D02*
X025333Y022332D01*
X025260Y022406D01*
X025260Y022552D01*
X025333Y022626D01*
X025627Y022332D01*
X025700Y022406D01*
X025700Y022552D01*
X025627Y022626D01*
X025333Y022626D01*
X025230Y022913D02*
X024980Y023163D01*
X024730Y022913D01*
X024230Y022913D01*
X023980Y023163D01*
X023980Y023663D01*
X024230Y023913D01*
X024730Y023913D01*
X024980Y023663D01*
X025230Y023913D01*
X025730Y023913D01*
X025980Y023663D01*
X025980Y023163D01*
X025730Y022913D01*
X025230Y022913D01*
X024980Y023163D02*
X024980Y023663D01*
X023980Y023663D02*
X023730Y023913D01*
X023230Y023913D01*
X022980Y023663D01*
X022730Y023913D01*
X022230Y023913D01*
X021980Y023663D01*
X021730Y023913D01*
X021230Y023913D01*
X020980Y023663D01*
X020980Y023163D01*
X021230Y022913D01*
X021730Y022913D01*
X021980Y023163D01*
X021980Y023663D01*
X021980Y023163D02*
X022230Y022913D01*
X022730Y022913D01*
X022980Y023163D01*
X022980Y023663D01*
X022980Y023163D02*
X023230Y022913D01*
X023730Y022913D01*
X023980Y023163D01*
X023700Y022626D02*
X023700Y022332D01*
X023406Y022626D01*
X023333Y022626D01*
X023260Y022552D01*
X023260Y022406D01*
X023333Y022332D01*
X022700Y022406D02*
X022700Y022552D01*
X022627Y022626D01*
X022553Y022626D01*
X022480Y022552D01*
X022480Y022479D01*
X022480Y022552D02*
X022406Y022626D01*
X022333Y022626D01*
X022260Y022552D01*
X022260Y022406D01*
X022333Y022332D01*
X022627Y022332D02*
X022700Y022406D01*
X021700Y022552D02*
X021260Y022552D01*
X021480Y022332D01*
X021480Y022626D01*
X020980Y023163D02*
X020730Y022913D01*
X020230Y022913D01*
X019980Y023163D01*
X019730Y022913D01*
X019230Y022913D01*
X018980Y023163D01*
X018730Y022913D01*
X018230Y022913D01*
X017980Y023163D01*
X017980Y023663D01*
X018230Y023913D01*
X018730Y023913D01*
X018980Y023663D01*
X019230Y023913D01*
X019730Y023913D01*
X019980Y023663D01*
X020230Y023913D01*
X020730Y023913D01*
X020980Y023663D01*
X020999Y024193D02*
X020872Y024319D01*
X020746Y024193D01*
X020746Y024573D01*
X020594Y024510D02*
X020594Y024383D01*
X020531Y024319D01*
X020340Y024319D01*
X020340Y024193D02*
X020340Y024573D01*
X020531Y024573D01*
X020594Y024510D01*
X020730Y024763D02*
X020230Y024763D01*
X019980Y025013D01*
X019730Y024763D01*
X019230Y024763D01*
X018980Y025013D01*
X018730Y024763D01*
X018230Y024763D01*
X017980Y025013D01*
X017730Y024763D01*
X017230Y024763D01*
X016980Y025013D01*
X016730Y024763D01*
X016230Y024763D01*
X015980Y025013D01*
X015730Y024763D01*
X015230Y024763D01*
X014980Y025013D01*
X014730Y024763D01*
X014230Y024763D01*
X013980Y025013D01*
X013730Y024763D01*
X013230Y024763D01*
X012980Y025013D01*
X012730Y024763D01*
X012230Y024763D01*
X011980Y025013D01*
X011730Y024763D01*
X011230Y024763D01*
X010980Y025013D01*
X010730Y024763D01*
X010230Y024763D01*
X009980Y025013D01*
X009730Y024763D01*
X009230Y024763D01*
X008980Y025013D01*
X008730Y024763D01*
X008230Y024763D01*
X007980Y025013D01*
X007980Y025513D01*
X008230Y025763D01*
X008730Y025763D01*
X008980Y025513D01*
X009230Y025763D01*
X009730Y025763D01*
X009980Y025513D01*
X009980Y025013D01*
X009980Y025513D02*
X010230Y025763D01*
X010730Y025763D01*
X010980Y025513D01*
X011230Y025763D01*
X011730Y025763D01*
X011980Y025513D01*
X012230Y025763D01*
X012730Y025763D01*
X012980Y025513D01*
X012980Y025013D01*
X012980Y025513D02*
X013230Y025763D01*
X013730Y025763D01*
X013980Y025513D01*
X014230Y025763D01*
X014730Y025763D01*
X014980Y025513D01*
X015230Y025763D01*
X015730Y025763D01*
X015980Y025513D01*
X015980Y025013D01*
X015980Y025513D02*
X016230Y025763D01*
X016730Y025763D01*
X016980Y025513D01*
X017230Y025763D01*
X017730Y025763D01*
X017980Y025513D01*
X018230Y025763D01*
X018730Y025763D01*
X018980Y025513D01*
X018980Y025013D01*
X019260Y024573D02*
X019387Y024573D01*
X019260Y024573D02*
X019260Y024193D01*
X019387Y024193D01*
X019935Y024319D02*
X020189Y024319D01*
X020189Y024446D02*
X019935Y024446D01*
X019980Y025013D02*
X019980Y025513D01*
X020230Y025763D01*
X020730Y025763D01*
X020980Y025513D01*
X021230Y025763D01*
X021730Y025763D01*
X021980Y025513D01*
X021980Y025013D01*
X021730Y024763D01*
X021230Y024763D01*
X020980Y025013D01*
X020730Y024763D01*
X020999Y024573D02*
X020999Y024193D01*
X021151Y024193D02*
X021151Y024573D01*
X021277Y024446D01*
X021404Y024573D01*
X021404Y024193D01*
X021556Y024193D02*
X021683Y024193D01*
X021683Y024573D01*
X021556Y024573D01*
X021980Y025013D02*
X022230Y024763D01*
X022730Y024763D01*
X022980Y025013D01*
X023230Y024763D01*
X023730Y024763D01*
X023980Y025013D01*
X024230Y024763D01*
X024730Y024763D01*
X024980Y025013D01*
X025230Y024763D01*
X025730Y024763D01*
X025980Y025013D01*
X025980Y025513D01*
X025730Y025763D01*
X025230Y025763D01*
X024980Y025513D01*
X024980Y025013D01*
X024980Y025513D02*
X024730Y025763D01*
X024230Y025763D01*
X023980Y025513D01*
X023980Y025013D01*
X023980Y025513D02*
X023730Y025763D01*
X023230Y025763D01*
X022980Y025513D01*
X022980Y025013D01*
X022980Y025513D02*
X022730Y025763D01*
X022230Y025763D01*
X021980Y025513D01*
X020980Y025513D02*
X020980Y025013D01*
X019980Y025513D02*
X019730Y025763D01*
X019230Y025763D01*
X018980Y025513D01*
X017980Y025513D02*
X017980Y025013D01*
X016980Y025013D02*
X016980Y025513D01*
X016943Y026693D02*
X017237Y026693D01*
X017404Y026693D02*
X017697Y026986D01*
X017697Y027060D01*
X017624Y027133D01*
X017477Y027133D01*
X017404Y027060D01*
X016943Y027133D02*
X016943Y026693D01*
X016776Y026913D02*
X016703Y026839D01*
X016483Y026839D01*
X016483Y026693D02*
X016483Y027133D01*
X016703Y027133D01*
X016776Y027060D01*
X016776Y026913D01*
X016316Y027133D02*
X016316Y026693D01*
X016022Y026693D02*
X016022Y027133D01*
X016169Y026986D01*
X016316Y027133D01*
X015856Y027060D02*
X015856Y026766D01*
X015782Y026693D01*
X015635Y026693D01*
X015562Y026766D01*
X015562Y027060D01*
X015635Y027133D01*
X015782Y027133D01*
X015856Y027060D01*
X015395Y027060D02*
X015322Y027133D01*
X015175Y027133D01*
X015102Y027060D01*
X015102Y026766D01*
X015175Y026693D01*
X015322Y026693D01*
X015395Y026766D01*
X014474Y026693D02*
X014474Y027133D01*
X014328Y026986D01*
X014181Y027133D01*
X014181Y026693D01*
X014014Y026693D02*
X013867Y026839D01*
X013720Y026693D01*
X013720Y027133D01*
X013554Y027060D02*
X013554Y026913D01*
X013480Y026839D01*
X013260Y026839D01*
X013260Y026693D02*
X013260Y027133D01*
X013480Y027133D01*
X013554Y027060D01*
X014014Y027133D02*
X014014Y026693D01*
X014014Y027693D02*
X014014Y028133D01*
X014181Y028133D02*
X014181Y027693D01*
X014014Y027693D02*
X013867Y027839D01*
X013720Y027693D01*
X013720Y028133D01*
X013554Y028060D02*
X013554Y027913D01*
X013480Y027839D01*
X013260Y027839D01*
X013260Y027693D02*
X013260Y028133D01*
X013480Y028133D01*
X013554Y028060D01*
X014181Y028133D02*
X014328Y027986D01*
X014474Y028133D01*
X014474Y027693D01*
X015102Y027766D02*
X015175Y027693D01*
X015322Y027693D01*
X015395Y027766D01*
X015562Y027766D02*
X015635Y027693D01*
X015782Y027693D01*
X015856Y027766D01*
X015856Y028060D01*
X015782Y028133D01*
X015635Y028133D01*
X015562Y028060D01*
X015562Y027766D01*
X015395Y028060D02*
X015322Y028133D01*
X015175Y028133D01*
X015102Y028060D01*
X015102Y027766D01*
X016022Y027693D02*
X016022Y028133D01*
X016169Y027986D01*
X016316Y028133D01*
X016316Y027693D01*
X016483Y027693D02*
X016483Y028133D01*
X016703Y028133D01*
X016776Y028060D01*
X016776Y027913D01*
X016703Y027839D01*
X016483Y027839D01*
X016943Y027693D02*
X016943Y028133D01*
X016943Y027693D02*
X017237Y027693D01*
X017404Y027693D02*
X017697Y027693D01*
X017550Y027693D02*
X017550Y028133D01*
X017404Y027986D01*
X017404Y026693D02*
X017697Y026693D01*
X014980Y025513D02*
X014980Y025013D01*
X013980Y025013D02*
X013980Y025513D01*
X011980Y025513D02*
X011980Y025013D01*
X010980Y025013D02*
X010980Y025513D01*
X008980Y025513D02*
X008980Y025013D01*
X009130Y023913D02*
X008630Y023913D01*
X008380Y023663D01*
X008130Y023913D01*
X007630Y023913D01*
X007380Y023663D01*
X007380Y023163D01*
X007630Y022913D01*
X008130Y022913D01*
X008380Y023163D01*
X008380Y023663D01*
X008380Y023163D02*
X008630Y022913D01*
X009130Y022913D01*
X009380Y023163D01*
X009380Y023663D01*
X009630Y023913D01*
X010130Y023913D01*
X010380Y023663D01*
X010630Y023913D01*
X011130Y023913D01*
X011380Y023663D01*
X011630Y023913D01*
X012130Y023913D01*
X012380Y023663D01*
X012630Y023913D01*
X013130Y023913D01*
X013380Y023663D01*
X013630Y023913D01*
X014130Y023913D01*
X014380Y023663D01*
X014630Y023913D01*
X015130Y023913D01*
X015380Y023663D01*
X015630Y023913D01*
X016130Y023913D01*
X016380Y023663D01*
X016630Y023913D01*
X017130Y023913D01*
X017380Y023663D01*
X017380Y023163D01*
X017130Y022913D01*
X016630Y022913D01*
X016380Y023163D01*
X016130Y022913D01*
X015630Y022913D01*
X015380Y023163D01*
X015380Y023663D01*
X015380Y023163D02*
X015130Y022913D01*
X014630Y022913D01*
X014380Y023163D01*
X014130Y022913D01*
X013630Y022913D01*
X013380Y023163D01*
X013130Y022913D01*
X012630Y022913D01*
X012380Y023163D01*
X012380Y023663D01*
X012380Y023163D02*
X012130Y022913D01*
X011630Y022913D01*
X011380Y023163D01*
X011130Y022913D01*
X010630Y022913D01*
X010380Y023163D01*
X010130Y022913D01*
X009630Y022913D01*
X009380Y023163D01*
X009380Y023663D02*
X009130Y023913D01*
X010380Y023663D02*
X010380Y023163D01*
X010725Y022612D02*
X010642Y022529D01*
X010642Y022279D01*
X011143Y022279D01*
X011143Y022529D01*
X011059Y022612D01*
X010725Y022612D01*
X010642Y022097D02*
X011143Y022097D01*
X010642Y021763D01*
X011143Y021763D01*
X011059Y021581D02*
X010892Y021581D01*
X010892Y021414D01*
X010725Y021247D02*
X011059Y021247D01*
X011143Y021331D01*
X011143Y021498D01*
X011059Y021581D01*
X010725Y021581D02*
X010642Y021498D01*
X010642Y021331D01*
X010725Y021247D01*
X010188Y021253D02*
X009688Y021253D01*
X009688Y021503D01*
X009771Y021587D01*
X009938Y021587D01*
X010021Y021503D01*
X010021Y021253D01*
X010021Y021420D02*
X010188Y021587D01*
X010188Y021769D02*
X009688Y021769D01*
X009688Y022102D01*
X009688Y022284D02*
X009688Y022618D01*
X009938Y022451D02*
X009938Y022284D01*
X010188Y022284D02*
X009688Y022284D01*
X009938Y021936D02*
X009938Y021769D01*
X010188Y021769D02*
X010188Y022102D01*
X009188Y022003D02*
X009188Y021753D01*
X008688Y021753D01*
X008688Y022003D01*
X008771Y022087D01*
X009105Y022087D01*
X009188Y022003D01*
X009188Y022269D02*
X008855Y022269D01*
X008688Y022436D01*
X008855Y022602D01*
X009188Y022602D01*
X008938Y022602D02*
X008938Y022269D01*
X008088Y022269D02*
X008088Y022602D01*
X008088Y022269D02*
X007588Y022269D01*
X007671Y022087D02*
X007588Y022003D01*
X007588Y021837D01*
X007671Y021753D01*
X008005Y021753D01*
X008088Y021837D01*
X008088Y022003D01*
X008005Y022087D01*
X008005Y021571D02*
X008088Y021488D01*
X008088Y021321D01*
X008005Y021237D01*
X007838Y021321D02*
X007838Y021488D01*
X007921Y021571D01*
X008005Y021571D01*
X007838Y021321D02*
X007755Y021237D01*
X007671Y021237D01*
X007588Y021321D01*
X007588Y021488D01*
X007671Y021571D01*
X008688Y021488D02*
X008688Y021321D01*
X008771Y021237D01*
X008855Y021237D01*
X008938Y021321D01*
X008938Y021488D01*
X009021Y021571D01*
X009105Y021571D01*
X009188Y021488D01*
X009188Y021321D01*
X009105Y021237D01*
X008771Y021571D02*
X008688Y021488D01*
X009688Y020904D02*
X009855Y021071D01*
X010188Y021071D01*
X009938Y021071D02*
X009938Y020737D01*
X009855Y020737D02*
X009688Y020904D01*
X009855Y020737D02*
X010188Y020737D01*
X009124Y020110D02*
X009124Y020036D01*
X009051Y019963D01*
X009124Y019889D01*
X009124Y019816D01*
X009051Y019743D01*
X008904Y019743D01*
X008831Y019816D01*
X008664Y019743D02*
X008370Y019743D01*
X008517Y019743D02*
X008517Y020183D01*
X008370Y020036D01*
X008204Y019963D02*
X008130Y019889D01*
X007910Y019889D01*
X007910Y019743D02*
X007910Y020183D01*
X008130Y020183D01*
X008204Y020110D01*
X008204Y019963D01*
X008831Y020110D02*
X008904Y020183D01*
X009051Y020183D01*
X009124Y020110D01*
X009051Y019963D02*
X008978Y019963D01*
X011660Y022019D02*
X011806Y021872D01*
X011660Y022019D02*
X012100Y022019D01*
X012100Y022165D02*
X012100Y021872D01*
X012660Y022019D02*
X013100Y022019D01*
X013100Y022165D02*
X013100Y021872D01*
X012806Y021872D02*
X012660Y022019D01*
X012733Y022332D02*
X012660Y022406D01*
X012660Y022552D01*
X012733Y022626D01*
X012806Y022626D01*
X013100Y022332D01*
X013100Y022626D01*
X013610Y022479D02*
X014050Y022479D01*
X014050Y022332D02*
X014050Y022626D01*
X013756Y022332D02*
X013610Y022479D01*
X013610Y022019D02*
X014050Y022019D01*
X014050Y022165D02*
X014050Y021872D01*
X013756Y021872D02*
X013610Y022019D01*
X014660Y022019D02*
X014806Y021872D01*
X014660Y022019D02*
X015100Y022019D01*
X015100Y022165D02*
X015100Y021872D01*
X015027Y022332D02*
X014733Y022332D01*
X014660Y022406D01*
X014660Y022552D01*
X014733Y022626D01*
X015027Y022332D01*
X015100Y022406D01*
X015100Y022552D01*
X015027Y022626D01*
X014733Y022626D01*
X014380Y023163D02*
X014380Y023663D01*
X013380Y023663D02*
X013380Y023163D01*
X012100Y022552D02*
X012100Y022406D01*
X012027Y022332D01*
X011880Y022479D02*
X011880Y022552D01*
X011953Y022626D01*
X012027Y022626D01*
X012100Y022552D01*
X011880Y022552D02*
X011806Y022626D01*
X011733Y022626D01*
X011660Y022552D01*
X011660Y022406D01*
X011733Y022332D01*
X011380Y023163D02*
X011380Y023663D01*
X015660Y022552D02*
X015660Y022406D01*
X015733Y022332D01*
X015806Y022332D01*
X015880Y022406D01*
X015880Y022626D01*
X016027Y022626D02*
X015733Y022626D01*
X015660Y022552D01*
X016027Y022626D02*
X016100Y022552D01*
X016100Y022406D01*
X016027Y022332D01*
X016660Y022406D02*
X016660Y022552D01*
X016733Y022626D01*
X016806Y022626D01*
X016880Y022552D01*
X016880Y022406D01*
X016806Y022332D01*
X016733Y022332D01*
X016660Y022406D01*
X016880Y022406D02*
X016953Y022332D01*
X017027Y022332D01*
X017100Y022406D01*
X017100Y022552D01*
X017027Y022626D01*
X016953Y022626D01*
X016880Y022552D01*
X016380Y023163D02*
X016380Y023663D01*
X018260Y022626D02*
X018333Y022626D01*
X018627Y022332D01*
X018700Y022332D01*
X018260Y022332D02*
X018260Y022626D01*
X018980Y023163D02*
X018980Y023663D01*
X019980Y023663D02*
X019980Y023163D01*
X020260Y022626D02*
X020260Y022332D01*
X020480Y022332D01*
X020406Y022479D01*
X020406Y022552D01*
X020480Y022626D01*
X020627Y022626D01*
X020700Y022552D01*
X020700Y022406D01*
X020627Y022332D01*
X019700Y022406D02*
X019700Y022552D01*
X019627Y022626D01*
X019553Y022626D01*
X019480Y022552D01*
X019480Y022332D01*
X019627Y022332D01*
X019700Y022406D01*
X019480Y022332D02*
X019333Y022479D01*
X019260Y022626D01*
X024260Y022479D02*
X024700Y022479D01*
X024700Y022332D02*
X024700Y022626D01*
X024406Y022332D02*
X024260Y022479D01*
X012749Y009473D02*
X012111Y009473D01*
X012111Y009436D01*
X012111Y009118D02*
X012111Y009081D01*
X012111Y008744D02*
X012111Y008707D01*
X012111Y008390D02*
X012111Y008353D01*
X012749Y008353D01*
X012749Y008390D01*
X012749Y008707D02*
X012749Y009118D01*
X012749Y009436D02*
X012749Y009473D01*
X012238Y007362D02*
X012238Y007028D01*
X012738Y007028D01*
X012738Y006846D02*
X012738Y006513D01*
X012238Y006513D01*
X012238Y006846D01*
X012488Y006679D02*
X012488Y006513D01*
X012488Y006331D02*
X012571Y006247D01*
X012571Y005997D01*
X012571Y006164D02*
X012738Y006331D01*
X012488Y006331D02*
X012321Y006331D01*
X012238Y006247D01*
X012238Y005997D01*
X012738Y005997D01*
X012655Y005815D02*
X012321Y005815D01*
X012238Y005731D01*
X012238Y005565D01*
X012321Y005481D01*
X012655Y005481D01*
X012738Y005565D01*
X012738Y005731D01*
X012655Y005815D01*
X012738Y005304D02*
X012738Y005137D01*
X012738Y005221D02*
X012238Y005221D01*
X012238Y005304D02*
X012238Y005137D01*
X012230Y004913D02*
X012730Y004913D01*
X012980Y004663D01*
X012980Y004163D01*
X012730Y003913D01*
X012230Y003913D01*
X011980Y004163D01*
X011730Y003913D01*
X011230Y003913D01*
X010980Y004163D01*
X010980Y004663D01*
X011230Y004913D01*
X011730Y004913D01*
X011980Y004663D01*
X012230Y004913D01*
X011980Y004663D02*
X011980Y004163D01*
X012980Y004163D02*
X013230Y003913D01*
X013730Y003913D01*
X013980Y004163D01*
X014230Y003913D01*
X014730Y003913D01*
X014980Y004163D01*
X015230Y003913D01*
X015730Y003913D01*
X015980Y004163D01*
X015980Y004663D01*
X015730Y004913D01*
X015230Y004913D01*
X014980Y004663D01*
X014980Y004163D01*
X014980Y004663D02*
X014730Y004913D01*
X014230Y004913D01*
X013980Y004663D01*
X013980Y004163D01*
X013980Y004663D02*
X013730Y004913D01*
X013230Y004913D01*
X012980Y004663D01*
X013238Y005137D02*
X013238Y005388D01*
X013321Y005471D01*
X013488Y005471D01*
X013571Y005388D01*
X013571Y005137D01*
X013738Y005137D02*
X013238Y005137D01*
X013571Y005304D02*
X013738Y005471D01*
X013655Y005653D02*
X013738Y005737D01*
X013738Y005903D01*
X013655Y005987D01*
X013571Y005987D01*
X013488Y005903D01*
X013488Y005737D01*
X013405Y005653D01*
X013321Y005653D01*
X013238Y005737D01*
X013238Y005903D01*
X013321Y005987D01*
X013238Y006169D02*
X013238Y006502D01*
X013238Y006336D02*
X013738Y006336D01*
X014238Y006419D02*
X014238Y006252D01*
X014321Y006169D01*
X014238Y005987D02*
X014571Y005987D01*
X014738Y005820D01*
X014571Y005653D01*
X014238Y005653D01*
X014321Y005471D02*
X014405Y005471D01*
X014488Y005388D01*
X014571Y005471D01*
X014655Y005471D01*
X014738Y005388D01*
X014738Y005221D01*
X014655Y005137D01*
X014488Y005304D02*
X014488Y005388D01*
X014321Y005471D02*
X014238Y005388D01*
X014238Y005221D01*
X014321Y005137D01*
X014655Y006169D02*
X014738Y006252D01*
X014738Y006419D01*
X014655Y006502D01*
X014571Y006502D01*
X014488Y006419D01*
X014488Y006336D01*
X014488Y006419D02*
X014405Y006502D01*
X014321Y006502D01*
X014238Y006419D01*
X012488Y007028D02*
X012488Y007195D01*
X009630Y005363D02*
X009530Y005363D01*
X009530Y005463D01*
X008930Y005463D01*
X008930Y005363D01*
X008830Y005363D01*
X008030Y005013D02*
X008030Y004663D01*
X008030Y003713D01*
X008030Y003313D01*
X008830Y002963D02*
X008930Y002963D01*
X008930Y002863D01*
X009530Y002863D01*
X009530Y002963D01*
X009630Y002963D01*
X010430Y003313D02*
X010430Y003663D01*
X010430Y004663D01*
X010430Y005013D01*
X009130Y004163D02*
X009132Y004183D01*
X009138Y004201D01*
X009147Y004219D01*
X009159Y004234D01*
X009174Y004246D01*
X009192Y004255D01*
X009210Y004261D01*
X009230Y004263D01*
X009250Y004261D01*
X009268Y004255D01*
X009286Y004246D01*
X009301Y004234D01*
X009313Y004219D01*
X009322Y004201D01*
X009328Y004183D01*
X009330Y004163D01*
X009328Y004143D01*
X009322Y004125D01*
X009313Y004107D01*
X009301Y004092D01*
X009286Y004080D01*
X009268Y004071D01*
X009250Y004065D01*
X009230Y004063D01*
X009210Y004065D01*
X009192Y004071D01*
X009174Y004080D01*
X009159Y004092D01*
X009147Y004107D01*
X009138Y004125D01*
X009132Y004143D01*
X009130Y004163D01*
X008530Y004163D02*
X008532Y004215D01*
X008538Y004267D01*
X008548Y004319D01*
X008561Y004369D01*
X008578Y004419D01*
X008599Y004467D01*
X008624Y004513D01*
X008652Y004557D01*
X008683Y004599D01*
X008717Y004639D01*
X008754Y004676D01*
X008794Y004710D01*
X008836Y004741D01*
X008880Y004769D01*
X008926Y004794D01*
X008974Y004815D01*
X009024Y004832D01*
X009074Y004845D01*
X009126Y004855D01*
X009178Y004861D01*
X009230Y004863D01*
X009282Y004861D01*
X009334Y004855D01*
X009386Y004845D01*
X009436Y004832D01*
X009486Y004815D01*
X009534Y004794D01*
X009580Y004769D01*
X009624Y004741D01*
X009666Y004710D01*
X009706Y004676D01*
X009743Y004639D01*
X009777Y004599D01*
X009808Y004557D01*
X009836Y004513D01*
X009861Y004467D01*
X009882Y004419D01*
X009899Y004369D01*
X009912Y004319D01*
X009922Y004267D01*
X009928Y004215D01*
X009930Y004163D01*
X009928Y004111D01*
X009922Y004059D01*
X009912Y004007D01*
X009899Y003957D01*
X009882Y003907D01*
X009861Y003859D01*
X009836Y003813D01*
X009808Y003769D01*
X009777Y003727D01*
X009743Y003687D01*
X009706Y003650D01*
X009666Y003616D01*
X009624Y003585D01*
X009580Y003557D01*
X009534Y003532D01*
X009486Y003511D01*
X009436Y003494D01*
X009386Y003481D01*
X009334Y003471D01*
X009282Y003465D01*
X009230Y003463D01*
X009178Y003465D01*
X009126Y003471D01*
X009074Y003481D01*
X009024Y003494D01*
X008974Y003511D01*
X008926Y003532D01*
X008880Y003557D01*
X008836Y003585D01*
X008794Y003616D01*
X008754Y003650D01*
X008717Y003687D01*
X008683Y003727D01*
X008652Y003769D01*
X008624Y003813D01*
X008599Y003859D01*
X008578Y003907D01*
X008561Y003957D01*
X008548Y004007D01*
X008538Y004059D01*
X008532Y004111D01*
X008530Y004163D01*
X010980Y003063D02*
X010980Y002563D01*
X011230Y002313D01*
X011730Y002313D01*
X011980Y002563D01*
X011980Y003063D01*
X011730Y003313D01*
X011230Y003313D01*
X010980Y003063D01*
X011980Y003063D02*
X012230Y003313D01*
X012730Y003313D01*
X012980Y003063D01*
X013230Y003313D01*
X013730Y003313D01*
X013980Y003063D01*
X014230Y003313D01*
X014730Y003313D01*
X014980Y003063D01*
X015230Y003313D01*
X015730Y003313D01*
X015980Y003063D01*
X016230Y003313D01*
X016730Y003313D01*
X016980Y003063D01*
X017230Y003313D01*
X017730Y003313D01*
X017980Y003063D01*
X018230Y003313D01*
X018730Y003313D01*
X018980Y003063D01*
X018980Y002563D01*
X018730Y002313D01*
X018230Y002313D01*
X017980Y002563D01*
X017730Y002313D01*
X017230Y002313D01*
X016980Y002563D01*
X016980Y003063D01*
X016980Y002563D02*
X016730Y002313D01*
X016230Y002313D01*
X015980Y002563D01*
X015730Y002313D01*
X015230Y002313D01*
X014980Y002563D01*
X014730Y002313D01*
X014230Y002313D01*
X013980Y002563D01*
X013980Y003063D01*
X013980Y002563D02*
X013730Y002313D01*
X013230Y002313D01*
X012980Y002563D01*
X012730Y002313D01*
X012230Y002313D01*
X011980Y002563D01*
X012980Y002563D02*
X012980Y003063D01*
X014980Y003063D02*
X014980Y002563D01*
X015980Y002563D02*
X015980Y003063D01*
X016230Y003913D02*
X015980Y004163D01*
X016230Y003913D02*
X016730Y003913D01*
X016980Y004163D01*
X017230Y003913D01*
X017730Y003913D01*
X017980Y004163D01*
X018230Y003913D01*
X018730Y003913D01*
X018980Y004163D01*
X018980Y004663D01*
X018730Y004913D01*
X018230Y004913D01*
X017980Y004663D01*
X017980Y004163D01*
X017980Y004663D02*
X017730Y004913D01*
X017230Y004913D01*
X016980Y004663D01*
X016980Y004163D01*
X016980Y004663D02*
X016730Y004913D01*
X016230Y004913D01*
X015980Y004663D01*
X017980Y003063D02*
X017980Y002563D01*
X019980Y002563D02*
X020230Y002313D01*
X020730Y002313D01*
X020980Y002563D01*
X021230Y002313D01*
X021730Y002313D01*
X021980Y002563D01*
X021980Y003063D01*
X021730Y003313D01*
X021230Y003313D01*
X020980Y003063D01*
X020980Y002563D01*
X020980Y003063D02*
X020730Y003313D01*
X020230Y003313D01*
X019980Y003063D01*
X019980Y002563D01*
X020230Y003913D02*
X020730Y003913D01*
X020980Y004163D01*
X021230Y003913D01*
X021730Y003913D01*
X021980Y004163D01*
X021980Y004663D01*
X021730Y004913D01*
X021230Y004913D01*
X020980Y004663D01*
X020980Y004163D01*
X020980Y004663D02*
X020730Y004913D01*
X020230Y004913D01*
X019980Y004663D01*
X019980Y004163D01*
X020230Y003913D01*
X021980Y004163D02*
X022230Y003913D01*
X022730Y003913D01*
X022980Y004163D01*
X023230Y003913D01*
X023730Y003913D01*
X023980Y004163D01*
X024230Y003913D01*
X024730Y003913D01*
X024980Y004163D01*
X025230Y003913D01*
X025730Y003913D01*
X025980Y004163D01*
X025980Y004663D01*
X025730Y004913D01*
X025230Y004913D01*
X024980Y004663D01*
X024980Y004163D01*
X024980Y004663D02*
X024730Y004913D01*
X024230Y004913D01*
X023980Y004663D01*
X023980Y004163D01*
X023980Y004663D02*
X023730Y004913D01*
X023230Y004913D01*
X022980Y004663D01*
X022980Y004163D01*
X022980Y004663D02*
X022730Y004913D01*
X022230Y004913D01*
X021980Y004663D01*
X022230Y003313D02*
X022730Y003313D01*
X022980Y003063D01*
X023230Y003313D01*
X023730Y003313D01*
X023980Y003063D01*
X024230Y003313D01*
X024730Y003313D01*
X024980Y003063D01*
X025230Y003313D01*
X025730Y003313D01*
X025980Y003063D01*
X025980Y002563D01*
X025730Y002313D01*
X025230Y002313D01*
X024980Y002563D01*
X024730Y002313D01*
X024230Y002313D01*
X023980Y002563D01*
X023730Y002313D01*
X023230Y002313D01*
X022980Y002563D01*
X022730Y002313D01*
X022230Y002313D01*
X021980Y002563D01*
X021980Y003063D02*
X022230Y003313D01*
X022980Y003063D02*
X022980Y002563D01*
X023980Y002563D02*
X023980Y003063D01*
X024980Y003063D02*
X024980Y002563D01*
X003430Y003313D02*
X003430Y003663D01*
X003430Y004663D01*
X003430Y005013D01*
X002630Y005363D02*
X002530Y005363D01*
X002530Y005463D01*
X001930Y005463D01*
X001930Y005363D01*
X001830Y005363D01*
X001030Y005013D02*
X001030Y004663D01*
X001030Y003713D01*
X001030Y003313D01*
X001830Y002963D02*
X001930Y002963D01*
X001930Y002863D01*
X002530Y002863D01*
X002530Y002963D01*
X002630Y002963D01*
X002130Y004163D02*
X002132Y004183D01*
X002138Y004201D01*
X002147Y004219D01*
X002159Y004234D01*
X002174Y004246D01*
X002192Y004255D01*
X002210Y004261D01*
X002230Y004263D01*
X002250Y004261D01*
X002268Y004255D01*
X002286Y004246D01*
X002301Y004234D01*
X002313Y004219D01*
X002322Y004201D01*
X002328Y004183D01*
X002330Y004163D01*
X002328Y004143D01*
X002322Y004125D01*
X002313Y004107D01*
X002301Y004092D01*
X002286Y004080D01*
X002268Y004071D01*
X002250Y004065D01*
X002230Y004063D01*
X002210Y004065D01*
X002192Y004071D01*
X002174Y004080D01*
X002159Y004092D01*
X002147Y004107D01*
X002138Y004125D01*
X002132Y004143D01*
X002130Y004163D01*
X001530Y004163D02*
X001532Y004215D01*
X001538Y004267D01*
X001548Y004319D01*
X001561Y004369D01*
X001578Y004419D01*
X001599Y004467D01*
X001624Y004513D01*
X001652Y004557D01*
X001683Y004599D01*
X001717Y004639D01*
X001754Y004676D01*
X001794Y004710D01*
X001836Y004741D01*
X001880Y004769D01*
X001926Y004794D01*
X001974Y004815D01*
X002024Y004832D01*
X002074Y004845D01*
X002126Y004855D01*
X002178Y004861D01*
X002230Y004863D01*
X002282Y004861D01*
X002334Y004855D01*
X002386Y004845D01*
X002436Y004832D01*
X002486Y004815D01*
X002534Y004794D01*
X002580Y004769D01*
X002624Y004741D01*
X002666Y004710D01*
X002706Y004676D01*
X002743Y004639D01*
X002777Y004599D01*
X002808Y004557D01*
X002836Y004513D01*
X002861Y004467D01*
X002882Y004419D01*
X002899Y004369D01*
X002912Y004319D01*
X002922Y004267D01*
X002928Y004215D01*
X002930Y004163D01*
X002928Y004111D01*
X002922Y004059D01*
X002912Y004007D01*
X002899Y003957D01*
X002882Y003907D01*
X002861Y003859D01*
X002836Y003813D01*
X002808Y003769D01*
X002777Y003727D01*
X002743Y003687D01*
X002706Y003650D01*
X002666Y003616D01*
X002624Y003585D01*
X002580Y003557D01*
X002534Y003532D01*
X002486Y003511D01*
X002436Y003494D01*
X002386Y003481D01*
X002334Y003471D01*
X002282Y003465D01*
X002230Y003463D01*
X002178Y003465D01*
X002126Y003471D01*
X002074Y003481D01*
X002024Y003494D01*
X001974Y003511D01*
X001926Y003532D01*
X001880Y003557D01*
X001836Y003585D01*
X001794Y003616D01*
X001754Y003650D01*
X001717Y003687D01*
X001683Y003727D01*
X001652Y003769D01*
X001624Y003813D01*
X001599Y003859D01*
X001578Y003907D01*
X001561Y003957D01*
X001548Y004007D01*
X001538Y004059D01*
X001532Y004111D01*
X001530Y004163D01*
X002280Y021663D02*
X002630Y021663D01*
X003580Y021663D01*
X003980Y021663D01*
X004330Y022463D02*
X004330Y022563D01*
X004430Y022563D01*
X004430Y023163D01*
X004330Y023163D01*
X004330Y023263D01*
X003980Y024063D02*
X003630Y024063D01*
X002630Y024063D01*
X002280Y024063D01*
X002422Y024271D02*
X002276Y024418D01*
X002349Y024418D02*
X002129Y024418D01*
X002129Y024271D02*
X002129Y024711D01*
X002349Y024711D01*
X002422Y024638D01*
X002422Y024491D01*
X002349Y024418D01*
X002589Y024491D02*
X002736Y024491D01*
X002589Y024711D02*
X002589Y024271D01*
X002883Y024271D01*
X003050Y024344D02*
X003123Y024271D01*
X003270Y024271D01*
X003343Y024344D01*
X003343Y024418D01*
X003270Y024491D01*
X003123Y024491D01*
X003050Y024565D01*
X003050Y024638D01*
X003123Y024711D01*
X003270Y024711D01*
X003343Y024638D01*
X003510Y024711D02*
X003510Y024271D01*
X003804Y024271D01*
X003657Y024491D02*
X003510Y024491D01*
X003510Y024711D02*
X003804Y024711D01*
X003970Y024711D02*
X004264Y024711D01*
X004117Y024711D02*
X004117Y024271D01*
X002883Y024711D02*
X002589Y024711D01*
X001930Y023263D02*
X001930Y023163D01*
X001830Y023163D01*
X001830Y022563D01*
X001930Y022563D01*
X001930Y022463D01*
X003030Y022863D02*
X003032Y022883D01*
X003038Y022901D01*
X003047Y022919D01*
X003059Y022934D01*
X003074Y022946D01*
X003092Y022955D01*
X003110Y022961D01*
X003130Y022963D01*
X003150Y022961D01*
X003168Y022955D01*
X003186Y022946D01*
X003201Y022934D01*
X003213Y022919D01*
X003222Y022901D01*
X003228Y022883D01*
X003230Y022863D01*
X003228Y022843D01*
X003222Y022825D01*
X003213Y022807D01*
X003201Y022792D01*
X003186Y022780D01*
X003168Y022771D01*
X003150Y022765D01*
X003130Y022763D01*
X003110Y022765D01*
X003092Y022771D01*
X003074Y022780D01*
X003059Y022792D01*
X003047Y022807D01*
X003038Y022825D01*
X003032Y022843D01*
X003030Y022863D01*
X002430Y022863D02*
X002432Y022915D01*
X002438Y022967D01*
X002448Y023019D01*
X002461Y023069D01*
X002478Y023119D01*
X002499Y023167D01*
X002524Y023213D01*
X002552Y023257D01*
X002583Y023299D01*
X002617Y023339D01*
X002654Y023376D01*
X002694Y023410D01*
X002736Y023441D01*
X002780Y023469D01*
X002826Y023494D01*
X002874Y023515D01*
X002924Y023532D01*
X002974Y023545D01*
X003026Y023555D01*
X003078Y023561D01*
X003130Y023563D01*
X003182Y023561D01*
X003234Y023555D01*
X003286Y023545D01*
X003336Y023532D01*
X003386Y023515D01*
X003434Y023494D01*
X003480Y023469D01*
X003524Y023441D01*
X003566Y023410D01*
X003606Y023376D01*
X003643Y023339D01*
X003677Y023299D01*
X003708Y023257D01*
X003736Y023213D01*
X003761Y023167D01*
X003782Y023119D01*
X003799Y023069D01*
X003812Y023019D01*
X003822Y022967D01*
X003828Y022915D01*
X003830Y022863D01*
X003828Y022811D01*
X003822Y022759D01*
X003812Y022707D01*
X003799Y022657D01*
X003782Y022607D01*
X003761Y022559D01*
X003736Y022513D01*
X003708Y022469D01*
X003677Y022427D01*
X003643Y022387D01*
X003606Y022350D01*
X003566Y022316D01*
X003524Y022285D01*
X003480Y022257D01*
X003434Y022232D01*
X003386Y022211D01*
X003336Y022194D01*
X003286Y022181D01*
X003234Y022171D01*
X003182Y022165D01*
X003130Y022163D01*
X003078Y022165D01*
X003026Y022171D01*
X002974Y022181D01*
X002924Y022194D01*
X002874Y022211D01*
X002826Y022232D01*
X002780Y022257D01*
X002736Y022285D01*
X002694Y022316D01*
X002654Y022350D01*
X002617Y022387D01*
X002583Y022427D01*
X002552Y022469D01*
X002524Y022513D01*
X002499Y022559D01*
X002478Y022607D01*
X002461Y022657D01*
X002448Y022707D01*
X002438Y022759D01*
X002432Y022811D01*
X002430Y022863D01*
D17*
X016020Y019769D02*
X016020Y018748D01*
X016020Y019258D02*
X016701Y019258D01*
X017125Y018918D02*
X017295Y019088D01*
X017806Y019088D01*
X017806Y019258D02*
X017806Y018748D01*
X017295Y018748D01*
X017125Y018918D01*
X016701Y018748D02*
X016701Y019769D01*
X017295Y019429D02*
X017635Y019429D01*
X017806Y019258D01*
X018230Y019258D02*
X018230Y018918D01*
X018400Y018748D01*
X018910Y018748D01*
X019335Y018748D02*
X019335Y019769D01*
X018910Y019429D02*
X018400Y019429D01*
X018230Y019258D01*
X019335Y019088D02*
X019845Y019429D01*
X020256Y019258D02*
X020766Y019258D01*
X020936Y019088D01*
X020936Y018918D01*
X020766Y018748D01*
X020256Y018748D01*
X020256Y019769D01*
X020766Y019769D01*
X020936Y019599D01*
X020936Y019429D01*
X020766Y019258D01*
X021361Y019258D02*
X021361Y018918D01*
X021531Y018748D01*
X021871Y018748D01*
X022041Y018918D01*
X022041Y019258D01*
X021871Y019429D01*
X021531Y019429D01*
X021361Y019258D01*
X022466Y018918D02*
X022636Y019088D01*
X023146Y019088D01*
X023146Y019258D02*
X023146Y018748D01*
X022636Y018748D01*
X022466Y018918D01*
X022636Y019429D02*
X022976Y019429D01*
X023146Y019258D01*
X023570Y019088D02*
X023911Y019429D01*
X024081Y019429D01*
X024491Y019258D02*
X024661Y019429D01*
X025172Y019429D01*
X025172Y019769D02*
X025172Y018748D01*
X024661Y018748D01*
X024491Y018918D01*
X024491Y019258D01*
X023570Y019429D02*
X023570Y018748D01*
X019845Y018748D02*
X019335Y019088D01*
D18*
X024985Y009812D02*
X025115Y009812D01*
X025115Y009725D02*
X024985Y009725D01*
X025028Y009768D01*
X024985Y009812D01*
X024985Y009664D02*
X024985Y009578D01*
X024985Y009621D02*
X025115Y009621D01*
X000935Y015423D02*
X000565Y015423D01*
X000565Y015608D01*
X000626Y015670D01*
X000750Y015670D01*
X000812Y015608D01*
X000812Y015423D01*
X000873Y015791D02*
X000626Y015791D01*
X000565Y015853D01*
X000565Y015976D01*
X000626Y016038D01*
X000565Y016159D02*
X000565Y016345D01*
X000626Y016406D01*
X000688Y016406D01*
X000750Y016345D01*
X000750Y016159D01*
X000873Y016038D02*
X000935Y015976D01*
X000935Y015853D01*
X000873Y015791D01*
X000935Y016159D02*
X000565Y016159D01*
X000750Y016345D02*
X000812Y016406D01*
X000873Y016406D01*
X000935Y016345D01*
X000935Y016159D01*
D19*
X000812Y017033D02*
X000814Y017056D01*
X000820Y017079D01*
X000830Y017100D01*
X000843Y017120D01*
X000859Y017137D01*
X000878Y017151D01*
X000899Y017161D01*
X000921Y017168D01*
X000944Y017171D01*
X000968Y017170D01*
X000990Y017165D01*
X001012Y017156D01*
X001032Y017144D01*
X001050Y017128D01*
X001064Y017110D01*
X001076Y017090D01*
X001084Y017068D01*
X001088Y017045D01*
X001088Y017021D01*
X001084Y016998D01*
X001076Y016976D01*
X001064Y016956D01*
X001050Y016938D01*
X001032Y016922D01*
X001012Y016910D01*
X000990Y016901D01*
X000968Y016896D01*
X000944Y016895D01*
X000921Y016898D01*
X000899Y016905D01*
X000878Y016915D01*
X000859Y016929D01*
X000843Y016946D01*
X000830Y016966D01*
X000820Y016987D01*
X000814Y017010D01*
X000812Y017033D01*
X001012Y017033D02*
X001014Y017056D01*
X001020Y017079D01*
X001030Y017100D01*
X001043Y017120D01*
X001059Y017137D01*
X001078Y017151D01*
X001099Y017161D01*
X001121Y017168D01*
X001144Y017171D01*
X001168Y017170D01*
X001190Y017165D01*
X001212Y017156D01*
X001232Y017144D01*
X001250Y017128D01*
X001264Y017110D01*
X001276Y017090D01*
X001284Y017068D01*
X001288Y017045D01*
X001288Y017021D01*
X001284Y016998D01*
X001276Y016976D01*
X001264Y016956D01*
X001250Y016938D01*
X001232Y016922D01*
X001212Y016910D01*
X001190Y016901D01*
X001168Y016896D01*
X001144Y016895D01*
X001121Y016898D01*
X001099Y016905D01*
X001078Y016915D01*
X001059Y016929D01*
X001043Y016946D01*
X001030Y016966D01*
X001020Y016987D01*
X001014Y017010D01*
X001012Y017033D01*
X001972Y017383D02*
X001974Y017406D01*
X001980Y017429D01*
X001990Y017450D01*
X002003Y017470D01*
X002019Y017487D01*
X002038Y017501D01*
X002059Y017511D01*
X002081Y017518D01*
X002104Y017521D01*
X002128Y017520D01*
X002150Y017515D01*
X002172Y017506D01*
X002192Y017494D01*
X002210Y017478D01*
X002224Y017460D01*
X002236Y017440D01*
X002244Y017418D01*
X002248Y017395D01*
X002248Y017371D01*
X002244Y017348D01*
X002236Y017326D01*
X002224Y017306D01*
X002210Y017288D01*
X002192Y017272D01*
X002172Y017260D01*
X002150Y017251D01*
X002128Y017246D01*
X002104Y017245D01*
X002081Y017248D01*
X002059Y017255D01*
X002038Y017265D01*
X002019Y017279D01*
X002003Y017296D01*
X001990Y017316D01*
X001980Y017337D01*
X001974Y017360D01*
X001972Y017383D01*
X001972Y017483D02*
X001974Y017506D01*
X001980Y017529D01*
X001990Y017550D01*
X002003Y017570D01*
X002019Y017587D01*
X002038Y017601D01*
X002059Y017611D01*
X002081Y017618D01*
X002104Y017621D01*
X002128Y017620D01*
X002150Y017615D01*
X002172Y017606D01*
X002192Y017594D01*
X002210Y017578D01*
X002224Y017560D01*
X002236Y017540D01*
X002244Y017518D01*
X002248Y017495D01*
X002248Y017471D01*
X002244Y017448D01*
X002236Y017426D01*
X002224Y017406D01*
X002210Y017388D01*
X002192Y017372D01*
X002172Y017360D01*
X002150Y017351D01*
X002128Y017346D01*
X002104Y017345D01*
X002081Y017348D01*
X002059Y017355D01*
X002038Y017365D01*
X002019Y017379D01*
X002003Y017396D01*
X001990Y017416D01*
X001980Y017437D01*
X001974Y017460D01*
X001972Y017483D01*
X001972Y019343D02*
X001974Y019366D01*
X001980Y019389D01*
X001990Y019410D01*
X002003Y019430D01*
X002019Y019447D01*
X002038Y019461D01*
X002059Y019471D01*
X002081Y019478D01*
X002104Y019481D01*
X002128Y019480D01*
X002150Y019475D01*
X002172Y019466D01*
X002192Y019454D01*
X002210Y019438D01*
X002224Y019420D01*
X002236Y019400D01*
X002244Y019378D01*
X002248Y019355D01*
X002248Y019331D01*
X002244Y019308D01*
X002236Y019286D01*
X002224Y019266D01*
X002210Y019248D01*
X002192Y019232D01*
X002172Y019220D01*
X002150Y019211D01*
X002128Y019206D01*
X002104Y019205D01*
X002081Y019208D01*
X002059Y019215D01*
X002038Y019225D01*
X002019Y019239D01*
X002003Y019256D01*
X001990Y019276D01*
X001980Y019297D01*
X001974Y019320D01*
X001972Y019343D01*
X001972Y019443D02*
X001974Y019466D01*
X001980Y019489D01*
X001990Y019510D01*
X002003Y019530D01*
X002019Y019547D01*
X002038Y019561D01*
X002059Y019571D01*
X002081Y019578D01*
X002104Y019581D01*
X002128Y019580D01*
X002150Y019575D01*
X002172Y019566D01*
X002192Y019554D01*
X002210Y019538D01*
X002224Y019520D01*
X002236Y019500D01*
X002244Y019478D01*
X002248Y019455D01*
X002248Y019431D01*
X002244Y019408D01*
X002236Y019386D01*
X002224Y019366D01*
X002210Y019348D01*
X002192Y019332D01*
X002172Y019320D01*
X002150Y019311D01*
X002128Y019306D01*
X002104Y019305D01*
X002081Y019308D01*
X002059Y019315D01*
X002038Y019325D01*
X002019Y019339D01*
X002003Y019356D01*
X001990Y019376D01*
X001980Y019397D01*
X001974Y019420D01*
X001972Y019443D01*
X001012Y019793D02*
X001014Y019816D01*
X001020Y019839D01*
X001030Y019860D01*
X001043Y019880D01*
X001059Y019897D01*
X001078Y019911D01*
X001099Y019921D01*
X001121Y019928D01*
X001144Y019931D01*
X001168Y019930D01*
X001190Y019925D01*
X001212Y019916D01*
X001232Y019904D01*
X001250Y019888D01*
X001264Y019870D01*
X001276Y019850D01*
X001284Y019828D01*
X001288Y019805D01*
X001288Y019781D01*
X001284Y019758D01*
X001276Y019736D01*
X001264Y019716D01*
X001250Y019698D01*
X001232Y019682D01*
X001212Y019670D01*
X001190Y019661D01*
X001168Y019656D01*
X001144Y019655D01*
X001121Y019658D01*
X001099Y019665D01*
X001078Y019675D01*
X001059Y019689D01*
X001043Y019706D01*
X001030Y019726D01*
X001020Y019747D01*
X001014Y019770D01*
X001012Y019793D01*
X000812Y019793D02*
X000814Y019816D01*
X000820Y019839D01*
X000830Y019860D01*
X000843Y019880D01*
X000859Y019897D01*
X000878Y019911D01*
X000899Y019921D01*
X000921Y019928D01*
X000944Y019931D01*
X000968Y019930D01*
X000990Y019925D01*
X001012Y019916D01*
X001032Y019904D01*
X001050Y019888D01*
X001064Y019870D01*
X001076Y019850D01*
X001084Y019828D01*
X001088Y019805D01*
X001088Y019781D01*
X001084Y019758D01*
X001076Y019736D01*
X001064Y019716D01*
X001050Y019698D01*
X001032Y019682D01*
X001012Y019670D01*
X000990Y019661D01*
X000968Y019656D01*
X000944Y019655D01*
X000921Y019658D01*
X000899Y019665D01*
X000878Y019675D01*
X000859Y019689D01*
X000843Y019706D01*
X000830Y019726D01*
X000820Y019747D01*
X000814Y019770D01*
X000812Y019793D01*
X005850Y023413D02*
X005852Y023463D01*
X005858Y023513D01*
X005868Y023562D01*
X005882Y023610D01*
X005899Y023657D01*
X005920Y023702D01*
X005945Y023746D01*
X005973Y023787D01*
X006005Y023826D01*
X006039Y023863D01*
X006076Y023897D01*
X006116Y023927D01*
X006158Y023954D01*
X006202Y023978D01*
X006248Y023999D01*
X006295Y024015D01*
X006343Y024028D01*
X006393Y024037D01*
X006442Y024042D01*
X006493Y024043D01*
X006543Y024040D01*
X006592Y024033D01*
X006641Y024022D01*
X006689Y024007D01*
X006735Y023989D01*
X006780Y023967D01*
X006823Y023941D01*
X006864Y023912D01*
X006903Y023880D01*
X006939Y023845D01*
X006971Y023807D01*
X007001Y023767D01*
X007028Y023724D01*
X007051Y023680D01*
X007070Y023634D01*
X007086Y023586D01*
X007098Y023537D01*
X007106Y023488D01*
X007110Y023438D01*
X007110Y023388D01*
X007106Y023338D01*
X007098Y023289D01*
X007086Y023240D01*
X007070Y023192D01*
X007051Y023146D01*
X007028Y023102D01*
X007001Y023059D01*
X006971Y023019D01*
X006939Y022981D01*
X006903Y022946D01*
X006864Y022914D01*
X006823Y022885D01*
X006780Y022859D01*
X006735Y022837D01*
X006689Y022819D01*
X006641Y022804D01*
X006592Y022793D01*
X006543Y022786D01*
X006493Y022783D01*
X006442Y022784D01*
X006393Y022789D01*
X006343Y022798D01*
X006295Y022811D01*
X006248Y022827D01*
X006202Y022848D01*
X006158Y022872D01*
X006116Y022899D01*
X006076Y022929D01*
X006039Y022963D01*
X006005Y023000D01*
X005973Y023039D01*
X005945Y023080D01*
X005920Y023124D01*
X005899Y023169D01*
X005882Y023216D01*
X005868Y023264D01*
X005858Y023313D01*
X005852Y023363D01*
X005850Y023413D01*
X025850Y017413D02*
X025852Y017463D01*
X025858Y017513D01*
X025868Y017562D01*
X025882Y017610D01*
X025899Y017657D01*
X025920Y017702D01*
X025945Y017746D01*
X025973Y017787D01*
X026005Y017826D01*
X026039Y017863D01*
X026076Y017897D01*
X026116Y017927D01*
X026158Y017954D01*
X026202Y017978D01*
X026248Y017999D01*
X026295Y018015D01*
X026343Y018028D01*
X026393Y018037D01*
X026442Y018042D01*
X026493Y018043D01*
X026543Y018040D01*
X026592Y018033D01*
X026641Y018022D01*
X026689Y018007D01*
X026735Y017989D01*
X026780Y017967D01*
X026823Y017941D01*
X026864Y017912D01*
X026903Y017880D01*
X026939Y017845D01*
X026971Y017807D01*
X027001Y017767D01*
X027028Y017724D01*
X027051Y017680D01*
X027070Y017634D01*
X027086Y017586D01*
X027098Y017537D01*
X027106Y017488D01*
X027110Y017438D01*
X027110Y017388D01*
X027106Y017338D01*
X027098Y017289D01*
X027086Y017240D01*
X027070Y017192D01*
X027051Y017146D01*
X027028Y017102D01*
X027001Y017059D01*
X026971Y017019D01*
X026939Y016981D01*
X026903Y016946D01*
X026864Y016914D01*
X026823Y016885D01*
X026780Y016859D01*
X026735Y016837D01*
X026689Y016819D01*
X026641Y016804D01*
X026592Y016793D01*
X026543Y016786D01*
X026493Y016783D01*
X026442Y016784D01*
X026393Y016789D01*
X026343Y016798D01*
X026295Y016811D01*
X026248Y016827D01*
X026202Y016848D01*
X026158Y016872D01*
X026116Y016899D01*
X026076Y016929D01*
X026039Y016963D01*
X026005Y017000D01*
X025973Y017039D01*
X025945Y017080D01*
X025920Y017124D01*
X025899Y017169D01*
X025882Y017216D01*
X025868Y017264D01*
X025858Y017313D01*
X025852Y017363D01*
X025850Y017413D01*
X025850Y006413D02*
X025852Y006463D01*
X025858Y006513D01*
X025868Y006562D01*
X025882Y006610D01*
X025899Y006657D01*
X025920Y006702D01*
X025945Y006746D01*
X025973Y006787D01*
X026005Y006826D01*
X026039Y006863D01*
X026076Y006897D01*
X026116Y006927D01*
X026158Y006954D01*
X026202Y006978D01*
X026248Y006999D01*
X026295Y007015D01*
X026343Y007028D01*
X026393Y007037D01*
X026442Y007042D01*
X026493Y007043D01*
X026543Y007040D01*
X026592Y007033D01*
X026641Y007022D01*
X026689Y007007D01*
X026735Y006989D01*
X026780Y006967D01*
X026823Y006941D01*
X026864Y006912D01*
X026903Y006880D01*
X026939Y006845D01*
X026971Y006807D01*
X027001Y006767D01*
X027028Y006724D01*
X027051Y006680D01*
X027070Y006634D01*
X027086Y006586D01*
X027098Y006537D01*
X027106Y006488D01*
X027110Y006438D01*
X027110Y006388D01*
X027106Y006338D01*
X027098Y006289D01*
X027086Y006240D01*
X027070Y006192D01*
X027051Y006146D01*
X027028Y006102D01*
X027001Y006059D01*
X026971Y006019D01*
X026939Y005981D01*
X026903Y005946D01*
X026864Y005914D01*
X026823Y005885D01*
X026780Y005859D01*
X026735Y005837D01*
X026689Y005819D01*
X026641Y005804D01*
X026592Y005793D01*
X026543Y005786D01*
X026493Y005783D01*
X026442Y005784D01*
X026393Y005789D01*
X026343Y005798D01*
X026295Y005811D01*
X026248Y005827D01*
X026202Y005848D01*
X026158Y005872D01*
X026116Y005899D01*
X026076Y005929D01*
X026039Y005963D01*
X026005Y006000D01*
X025973Y006039D01*
X025945Y006080D01*
X025920Y006124D01*
X025899Y006169D01*
X025882Y006216D01*
X025868Y006264D01*
X025858Y006313D01*
X025852Y006363D01*
X025850Y006413D01*
X005350Y004413D02*
X005352Y004463D01*
X005358Y004513D01*
X005368Y004562D01*
X005382Y004610D01*
X005399Y004657D01*
X005420Y004702D01*
X005445Y004746D01*
X005473Y004787D01*
X005505Y004826D01*
X005539Y004863D01*
X005576Y004897D01*
X005616Y004927D01*
X005658Y004954D01*
X005702Y004978D01*
X005748Y004999D01*
X005795Y005015D01*
X005843Y005028D01*
X005893Y005037D01*
X005942Y005042D01*
X005993Y005043D01*
X006043Y005040D01*
X006092Y005033D01*
X006141Y005022D01*
X006189Y005007D01*
X006235Y004989D01*
X006280Y004967D01*
X006323Y004941D01*
X006364Y004912D01*
X006403Y004880D01*
X006439Y004845D01*
X006471Y004807D01*
X006501Y004767D01*
X006528Y004724D01*
X006551Y004680D01*
X006570Y004634D01*
X006586Y004586D01*
X006598Y004537D01*
X006606Y004488D01*
X006610Y004438D01*
X006610Y004388D01*
X006606Y004338D01*
X006598Y004289D01*
X006586Y004240D01*
X006570Y004192D01*
X006551Y004146D01*
X006528Y004102D01*
X006501Y004059D01*
X006471Y004019D01*
X006439Y003981D01*
X006403Y003946D01*
X006364Y003914D01*
X006323Y003885D01*
X006280Y003859D01*
X006235Y003837D01*
X006189Y003819D01*
X006141Y003804D01*
X006092Y003793D01*
X006043Y003786D01*
X005993Y003783D01*
X005942Y003784D01*
X005893Y003789D01*
X005843Y003798D01*
X005795Y003811D01*
X005748Y003827D01*
X005702Y003848D01*
X005658Y003872D01*
X005616Y003899D01*
X005576Y003929D01*
X005539Y003963D01*
X005505Y004000D01*
X005473Y004039D01*
X005445Y004080D01*
X005420Y004124D01*
X005399Y004169D01*
X005382Y004216D01*
X005368Y004264D01*
X005358Y004313D01*
X005352Y004363D01*
X005350Y004413D01*
D20*
X019017Y017434D02*
X019584Y017434D01*
X019300Y017434D02*
X019300Y018284D01*
X019017Y018001D01*
X019938Y018143D02*
X019938Y017576D01*
X020505Y018143D01*
X020505Y017576D01*
X020363Y017434D01*
X020079Y017434D01*
X019938Y017576D01*
X019938Y018143D02*
X020079Y018284D01*
X020363Y018284D01*
X020505Y018143D01*
X020858Y018001D02*
X021142Y018284D01*
X021142Y017434D01*
X020858Y017434D02*
X021426Y017434D01*
D21*
X008391Y018013D03*
X008391Y016763D03*
X008391Y015563D03*
X008341Y019363D03*
X007180Y002873D03*
X005780Y002873D03*
X004480Y002873D03*
D22*
X021984Y013519D02*
X021984Y014306D01*
X022476Y014306D02*
X022476Y013519D01*
X005374Y016167D02*
X004586Y016167D01*
X004586Y016659D02*
X005374Y016659D01*
D23*
X004980Y016413D03*
D24*
X022230Y013913D03*
D25*
X010430Y004663D02*
X010330Y004663D01*
X010330Y003663D01*
X010430Y003663D01*
X008130Y003713D02*
X008030Y003713D01*
X008130Y003713D02*
X008130Y004663D01*
X008030Y004663D01*
X003430Y004663D02*
X003330Y004663D01*
X003330Y003663D01*
X003430Y003663D01*
X001130Y003713D02*
X001030Y003713D01*
X001130Y003713D02*
X001130Y004663D01*
X001030Y004663D01*
X000480Y015513D02*
X000480Y015935D01*
X000480Y016328D02*
X000480Y016750D01*
X000480Y017144D02*
X000480Y017566D01*
X000480Y017960D02*
X000480Y018381D01*
X000480Y018775D02*
X000480Y019197D01*
X000480Y019591D02*
X000480Y020013D01*
X002630Y021663D02*
X002630Y021763D01*
X003580Y021763D01*
X003580Y021663D01*
X003630Y023963D02*
X002630Y023963D01*
X002630Y024063D01*
X003630Y024063D02*
X003630Y023963D01*
D26*
X023680Y014133D03*
D27*
X006910Y002926D02*
X006757Y003079D01*
X006450Y003079D01*
X006450Y002772D02*
X006757Y002772D01*
X006910Y002926D01*
X005510Y003079D02*
X005203Y003079D01*
X005050Y002926D01*
X005203Y002772D01*
X005510Y002772D01*
X005280Y002772D02*
X005280Y003079D01*
X004160Y003079D02*
X004007Y002926D01*
X004007Y003002D02*
X004007Y002772D01*
X004160Y002772D02*
X003700Y002772D01*
X003700Y003002D01*
X003776Y003079D01*
X003930Y003079D01*
X004007Y003002D01*
M02*
