G75*
%MOIN*%
%OFA0B0*%
%FSLAX24Y24*%
%IPPOS*%
%LPD*%
%AMOC8*
5,1,8,0,0,1.08239X$1,22.5*
%
%ADD10C,0.1300*%
%ADD11OC8,0.0650*%
%ADD12C,0.0600*%
%ADD13C,0.0284*%
%ADD14C,0.0640*%
%ADD15C,0.0316*%
D10*
X005980Y004413D03*
X026480Y006413D03*
X026480Y017413D03*
X006480Y023413D03*
D11*
X025530Y015413D03*
X026530Y015413D03*
X026530Y014413D03*
X025530Y014413D03*
X025530Y013413D03*
X026530Y013413D03*
D12*
X025480Y004553D02*
X025480Y004273D01*
X024480Y004273D02*
X024480Y004553D01*
X023480Y004553D02*
X023480Y004273D01*
X022480Y004273D02*
X022480Y004553D01*
X021480Y004553D02*
X021480Y004273D01*
X020480Y004273D02*
X020480Y004553D01*
X018480Y004553D02*
X018480Y004273D01*
X017480Y004273D02*
X017480Y004553D01*
X016480Y004553D02*
X016480Y004273D01*
X015480Y004273D02*
X015480Y004553D01*
X014480Y004553D02*
X014480Y004273D01*
X013480Y004273D02*
X013480Y004553D01*
X012480Y004553D02*
X012480Y004273D01*
X011480Y004273D02*
X011480Y004553D01*
X011880Y023273D02*
X011880Y023553D01*
X010880Y023553D02*
X010880Y023273D01*
X009880Y023273D02*
X009880Y023553D01*
X008880Y023553D02*
X008880Y023273D01*
X007880Y023273D02*
X007880Y023553D01*
X012880Y023553D02*
X012880Y023273D01*
X013880Y023273D02*
X013880Y023553D01*
X014880Y023553D02*
X014880Y023273D01*
X015880Y023273D02*
X015880Y023553D01*
X016880Y023553D02*
X016880Y023273D01*
X018480Y023273D02*
X018480Y023553D01*
X019480Y023553D02*
X019480Y023273D01*
X020480Y023273D02*
X020480Y023553D01*
X021480Y023553D02*
X021480Y023273D01*
X022480Y023273D02*
X022480Y023553D01*
X023480Y023553D02*
X023480Y023273D01*
X024480Y023273D02*
X024480Y023553D01*
X025480Y023553D02*
X025480Y023273D01*
D13*
X022535Y009575D02*
X022535Y009543D01*
X022425Y009543D01*
X022425Y009575D01*
X022535Y009575D01*
X022535Y009325D02*
X022535Y009293D01*
X022425Y009293D01*
X022425Y009325D01*
X022535Y009325D01*
X022535Y009063D02*
X022535Y009031D01*
X022425Y009031D01*
X022425Y009063D01*
X022535Y009063D01*
X022535Y008813D02*
X022535Y008781D01*
X022425Y008781D01*
X022425Y008813D01*
X022535Y008813D01*
D14*
X001340Y003033D02*
X001340Y002733D01*
X003120Y002733D02*
X003120Y003033D01*
X003120Y005293D02*
X003120Y005593D01*
X001340Y005593D02*
X001340Y005293D01*
X008340Y005293D02*
X008340Y005593D01*
X010120Y005593D02*
X010120Y005293D01*
X010120Y003033D02*
X010120Y002733D01*
X011480Y002663D02*
X011480Y002963D01*
X012480Y002963D02*
X012480Y002663D01*
X013480Y002663D02*
X013480Y002963D01*
X014480Y002963D02*
X014480Y002663D01*
X015480Y002663D02*
X015480Y002963D01*
X016480Y002963D02*
X016480Y002663D01*
X017480Y002663D02*
X017480Y002963D01*
X018480Y002963D02*
X018480Y002663D01*
X020480Y002663D02*
X020480Y002963D01*
X021480Y002963D02*
X021480Y002663D01*
X022480Y002663D02*
X022480Y002963D01*
X023480Y002963D02*
X023480Y002663D01*
X024480Y002663D02*
X024480Y002963D01*
X025480Y002963D02*
X025480Y002663D01*
X008340Y002733D02*
X008340Y003033D01*
X004560Y021973D02*
X004260Y021973D01*
X002000Y021973D02*
X001700Y021973D01*
X001700Y023753D02*
X002000Y023753D01*
X004260Y023753D02*
X004560Y023753D01*
X008480Y025113D02*
X008480Y025413D01*
X009480Y025413D02*
X009480Y025113D01*
X010480Y025113D02*
X010480Y025413D01*
X011480Y025413D02*
X011480Y025113D01*
X012480Y025113D02*
X012480Y025413D01*
X013480Y025413D02*
X013480Y025113D01*
X014480Y025113D02*
X014480Y025413D01*
X015480Y025413D02*
X015480Y025113D01*
X016480Y025113D02*
X016480Y025413D01*
X017480Y025413D02*
X017480Y025113D01*
X018480Y025113D02*
X018480Y025413D01*
X019480Y025413D02*
X019480Y025113D01*
X020480Y025113D02*
X020480Y025413D01*
X021480Y025413D02*
X021480Y025113D01*
X022480Y025113D02*
X022480Y025413D01*
X023480Y025413D02*
X023480Y025113D01*
X024480Y025113D02*
X024480Y025413D01*
X025480Y025413D02*
X025480Y025113D01*
D15*
X002110Y019443D03*
X002110Y019343D03*
X001150Y019793D03*
X000950Y019793D03*
X002110Y017483D03*
X002110Y017383D03*
X001150Y017033D03*
X000950Y017033D03*
M02*
