%
M48
M72
T01C0.0236
T02C0.0240
T03C0.0276
T04C0.0335
T05C0.0374
T06C0.0400
T07C0.1260
%
T01
X11130Y8313
X11130Y9313
X13680Y8463
X10630Y14913
X10480Y20613
X24080Y8163
T02
X23730Y8663
X23730Y9263
X23730Y9913
X23780Y11263
X22480Y11913
X20980Y12163
X21780Y13063
X22730Y13063
X22230Y15163
X21030Y15163
X17730Y14163
X17230Y13663
X16480Y14413
X15480Y14413
X14980Y13913
X15730Y13413
X16930Y12763
X16430Y12413
X13980Y13913
X13480Y14413
X12730Y13913
X11980Y14413
X11580Y15463
X11580Y16163
X12480Y15913
X13480Y15913
X14480Y14413
X16480Y15663
X17230Y15163
X13330Y12213
X11080Y11863
X10480Y11863
X15230Y10163
X16930Y7863
X16980Y7163
X19730Y9163
X20320Y8413
X21830Y7863
X22330Y7163
X22980Y8053
X24430Y7663
X24430Y7063
X24980Y5913
X19480Y3513
X10730Y3513
X26280Y9963
X8880Y20613
X7880Y20613
X6230Y18413
X6230Y17663
X6680Y16263
X7130Y15813
X3730Y16663
X2230Y16663
X880Y16513
X930Y17563
X1480Y18413
X930Y19263
X930Y20313
X17680Y23413
T03
X2110Y19443
X2110Y19343
X1150Y19793
X950Y19793
X2110Y17483
X2110Y17383
X1150Y17033
X950Y17033
T04
X7880Y23413
X8880Y23413
X9880Y23413
X10880Y23413
X11880Y23413
X12880Y23413
X13880Y23413
X14880Y23413
X15880Y23413
X16880Y23413
X18480Y23413
X19480Y23413
X20480Y23413
X21480Y23413
X22480Y23413
X23480Y23413
X24480Y23413
X25480Y23413
X25480Y4413
X24480Y4413
X23480Y4413
X22480Y4413
X21480Y4413
X20480Y4413
X18480Y4413
X17480Y4413
X16480Y4413
X15480Y4413
X14480Y4413
X13480Y4413
X12480Y4413
X11480Y4413
T05
X25530Y13413
X25530Y14413
X26530Y14413
X26530Y13413
X26530Y15413
X25530Y15413
T06
X1340Y2883
X3120Y2883
X3120Y5443
X1340Y5443
X8340Y5443
X10120Y5443
X10120Y2883
X11480Y2813
X12480Y2813
X13480Y2813
X14480Y2813
X15480Y2813
X16480Y2813
X17480Y2813
X18480Y2813
X20480Y2813
X21480Y2813
X22480Y2813
X23480Y2813
X24480Y2813
X25480Y2813
X8340Y2883
X4410Y21973
X4410Y23753
X1850Y23753
X1850Y21973
X8480Y25263
X9480Y25263
X10480Y25263
X11480Y25263
X12480Y25263
X13480Y25263
X14480Y25263
X15480Y25263
X16480Y25263
X17480Y25263
X18480Y25263
X19480Y25263
X20480Y25263
X21480Y25263
X22480Y25263
X23480Y25263
X24480Y25263
X25480Y25263
T07
X26480Y17413
X26480Y6413
X5980Y4413
X6480Y23413
M30
