G75*
%MOIN*%
%OFA0B0*%
%FSLAX24Y24*%
%IPPOS*%
%LPD*%
%AMOC8*
5,1,8,0,0,1.08239X$1,22.5*
%
%ADD10C,0.1300*%
%ADD11OC8,0.0650*%
%ADD12C,0.0600*%
%ADD13C,0.0315*%
%ADD14C,0.0051*%
%ADD15C,0.0055*%
%ADD16C,0.0043*%
%ADD17C,0.0174*%
%ADD18C,0.0434*%
%ADD19C,0.0067*%
%ADD20C,0.0046*%
%ADD21C,0.0640*%
%ADD22C,0.0045*%
%ADD23C,0.0059*%
%ADD24C,0.0130*%
%ADD25C,0.0352*%
%ADD26C,0.0050*%
%ADD27C,0.0064*%
%ADD28C,0.0316*%
D10*
X005980Y004413D03*
X026480Y006413D03*
X026480Y017413D03*
X006480Y023413D03*
D11*
X025530Y015413D03*
X026530Y015413D03*
X026530Y014413D03*
X025530Y014413D03*
X025530Y013413D03*
X026530Y013413D03*
D12*
X025480Y004553D02*
X025480Y004273D01*
X024480Y004273D02*
X024480Y004553D01*
X023480Y004553D02*
X023480Y004273D01*
X022480Y004273D02*
X022480Y004553D01*
X021480Y004553D02*
X021480Y004273D01*
X020480Y004273D02*
X020480Y004553D01*
X018480Y004553D02*
X018480Y004273D01*
X017480Y004273D02*
X017480Y004553D01*
X016480Y004553D02*
X016480Y004273D01*
X015480Y004273D02*
X015480Y004553D01*
X014480Y004553D02*
X014480Y004273D01*
X013480Y004273D02*
X013480Y004553D01*
X012480Y004553D02*
X012480Y004273D01*
X011480Y004273D02*
X011480Y004553D01*
X011880Y023273D02*
X011880Y023553D01*
X010880Y023553D02*
X010880Y023273D01*
X009880Y023273D02*
X009880Y023553D01*
X008880Y023553D02*
X008880Y023273D01*
X007880Y023273D02*
X007880Y023553D01*
X012880Y023553D02*
X012880Y023273D01*
X013880Y023273D02*
X013880Y023553D01*
X014880Y023553D02*
X014880Y023273D01*
X015880Y023273D02*
X015880Y023553D01*
X016880Y023553D02*
X016880Y023273D01*
X018480Y023273D02*
X018480Y023553D01*
X019480Y023553D02*
X019480Y023273D01*
X020480Y023273D02*
X020480Y023553D01*
X021480Y023553D02*
X021480Y023273D01*
X022480Y023273D02*
X022480Y023553D01*
X023480Y023553D02*
X023480Y023273D01*
X024480Y023273D02*
X024480Y023553D01*
X025480Y023553D02*
X025480Y023273D01*
D13*
X020070Y015992D02*
X020070Y015834D01*
X019990Y015834D01*
X019990Y015992D01*
X020070Y015992D01*
X019370Y015992D02*
X019370Y015834D01*
X019290Y015834D01*
X019290Y015992D01*
X019370Y015992D01*
X020651Y014473D02*
X020809Y014473D01*
X020651Y014473D02*
X020651Y014553D01*
X020809Y014553D01*
X020809Y014473D01*
X020809Y013773D02*
X020651Y013773D01*
X020651Y013853D01*
X020809Y013853D01*
X020809Y013773D01*
X019870Y013334D02*
X019790Y013334D01*
X019790Y013492D01*
X019870Y013492D01*
X019870Y013334D01*
X019170Y013334D02*
X019090Y013334D01*
X019090Y013492D01*
X019170Y013492D01*
X019170Y013334D01*
X022901Y013523D02*
X023059Y013523D01*
X022901Y013523D02*
X022901Y013603D01*
X023059Y013603D01*
X023059Y013523D01*
X023059Y014223D02*
X022901Y014223D01*
X022901Y014303D01*
X023059Y014303D01*
X023059Y014223D01*
X023370Y009992D02*
X023370Y009834D01*
X023290Y009834D01*
X023290Y009992D01*
X023370Y009992D01*
X022670Y009992D02*
X022670Y009834D01*
X022590Y009834D01*
X022590Y009992D01*
X022670Y009992D01*
X012690Y009992D02*
X012690Y009834D01*
X012690Y009992D02*
X012770Y009992D01*
X012770Y009834D01*
X012690Y009834D01*
X011990Y009834D02*
X011990Y009992D01*
X012070Y009992D01*
X012070Y009834D01*
X011990Y009834D01*
X012120Y007992D02*
X012120Y007834D01*
X012040Y007834D01*
X012040Y007992D01*
X012120Y007992D01*
X012820Y007992D02*
X012820Y007834D01*
X012740Y007834D01*
X012740Y007992D01*
X012820Y007992D01*
D14*
X007411Y003557D02*
X006949Y003557D01*
X007411Y003557D02*
X007411Y003095D01*
X006949Y003095D01*
X006949Y003557D01*
X006949Y003145D02*
X007411Y003145D01*
X007411Y003195D02*
X006949Y003195D01*
X006949Y003245D02*
X007411Y003245D01*
X007411Y003295D02*
X006949Y003295D01*
X006949Y003345D02*
X007411Y003345D01*
X007411Y003395D02*
X006949Y003395D01*
X006949Y003445D02*
X007411Y003445D01*
X007411Y003495D02*
X006949Y003495D01*
X006949Y003545D02*
X007411Y003545D01*
X007411Y002730D02*
X006949Y002730D01*
X007411Y002730D02*
X007411Y002268D01*
X006949Y002268D01*
X006949Y002730D01*
X006949Y002318D02*
X007411Y002318D01*
X007411Y002368D02*
X006949Y002368D01*
X006949Y002418D02*
X007411Y002418D01*
X007411Y002468D02*
X006949Y002468D01*
X006949Y002518D02*
X007411Y002518D01*
X007411Y002568D02*
X006949Y002568D01*
X006949Y002618D02*
X007411Y002618D01*
X007411Y002668D02*
X006949Y002668D01*
X006949Y002718D02*
X007411Y002718D01*
X006011Y002730D02*
X005549Y002730D01*
X006011Y002730D02*
X006011Y002268D01*
X005549Y002268D01*
X005549Y002730D01*
X005549Y002318D02*
X006011Y002318D01*
X006011Y002368D02*
X005549Y002368D01*
X005549Y002418D02*
X006011Y002418D01*
X006011Y002468D02*
X005549Y002468D01*
X005549Y002518D02*
X006011Y002518D01*
X006011Y002568D02*
X005549Y002568D01*
X005549Y002618D02*
X006011Y002618D01*
X006011Y002668D02*
X005549Y002668D01*
X005549Y002718D02*
X006011Y002718D01*
X006011Y003557D02*
X005549Y003557D01*
X006011Y003557D02*
X006011Y003095D01*
X005549Y003095D01*
X005549Y003557D01*
X005549Y003145D02*
X006011Y003145D01*
X006011Y003195D02*
X005549Y003195D01*
X005549Y003245D02*
X006011Y003245D01*
X006011Y003295D02*
X005549Y003295D01*
X005549Y003345D02*
X006011Y003345D01*
X006011Y003395D02*
X005549Y003395D01*
X005549Y003445D02*
X006011Y003445D01*
X006011Y003495D02*
X005549Y003495D01*
X005549Y003545D02*
X006011Y003545D01*
X004711Y003557D02*
X004249Y003557D01*
X004711Y003557D02*
X004711Y003095D01*
X004249Y003095D01*
X004249Y003557D01*
X004249Y003145D02*
X004711Y003145D01*
X004711Y003195D02*
X004249Y003195D01*
X004249Y003245D02*
X004711Y003245D01*
X004711Y003295D02*
X004249Y003295D01*
X004249Y003345D02*
X004711Y003345D01*
X004711Y003395D02*
X004249Y003395D01*
X004249Y003445D02*
X004711Y003445D01*
X004711Y003495D02*
X004249Y003495D01*
X004249Y003545D02*
X004711Y003545D01*
X004711Y002730D02*
X004249Y002730D01*
X004711Y002730D02*
X004711Y002268D01*
X004249Y002268D01*
X004249Y002730D01*
X004249Y002318D02*
X004711Y002318D01*
X004711Y002368D02*
X004249Y002368D01*
X004249Y002418D02*
X004711Y002418D01*
X004711Y002468D02*
X004249Y002468D01*
X004249Y002518D02*
X004711Y002518D01*
X004711Y002568D02*
X004249Y002568D01*
X004249Y002618D02*
X004711Y002618D01*
X004711Y002668D02*
X004249Y002668D01*
X004249Y002718D02*
X004711Y002718D01*
X008248Y015332D02*
X008248Y015794D01*
X008248Y015332D02*
X007786Y015332D01*
X007786Y015794D01*
X008248Y015794D01*
X008248Y015382D02*
X007786Y015382D01*
X007786Y015432D02*
X008248Y015432D01*
X008248Y015482D02*
X007786Y015482D01*
X007786Y015532D02*
X008248Y015532D01*
X008248Y015582D02*
X007786Y015582D01*
X007786Y015632D02*
X008248Y015632D01*
X008248Y015682D02*
X007786Y015682D01*
X007786Y015732D02*
X008248Y015732D01*
X008248Y015782D02*
X007786Y015782D01*
X009074Y015794D02*
X009074Y015332D01*
X008612Y015332D01*
X008612Y015794D01*
X009074Y015794D01*
X009074Y015382D02*
X008612Y015382D01*
X008612Y015432D02*
X009074Y015432D01*
X009074Y015482D02*
X008612Y015482D01*
X008612Y015532D02*
X009074Y015532D01*
X009074Y015582D02*
X008612Y015582D01*
X008612Y015632D02*
X009074Y015632D01*
X009074Y015682D02*
X008612Y015682D01*
X008612Y015732D02*
X009074Y015732D01*
X009074Y015782D02*
X008612Y015782D01*
X009074Y016532D02*
X009074Y016994D01*
X009074Y016532D02*
X008612Y016532D01*
X008612Y016994D01*
X009074Y016994D01*
X009074Y016582D02*
X008612Y016582D01*
X008612Y016632D02*
X009074Y016632D01*
X009074Y016682D02*
X008612Y016682D01*
X008612Y016732D02*
X009074Y016732D01*
X009074Y016782D02*
X008612Y016782D01*
X008612Y016832D02*
X009074Y016832D01*
X009074Y016882D02*
X008612Y016882D01*
X008612Y016932D02*
X009074Y016932D01*
X009074Y016982D02*
X008612Y016982D01*
X008248Y016994D02*
X008248Y016532D01*
X007786Y016532D01*
X007786Y016994D01*
X008248Y016994D01*
X008248Y016582D02*
X007786Y016582D01*
X007786Y016632D02*
X008248Y016632D01*
X008248Y016682D02*
X007786Y016682D01*
X007786Y016732D02*
X008248Y016732D01*
X008248Y016782D02*
X007786Y016782D01*
X007786Y016832D02*
X008248Y016832D01*
X008248Y016882D02*
X007786Y016882D01*
X007786Y016932D02*
X008248Y016932D01*
X008248Y016982D02*
X007786Y016982D01*
X008248Y017782D02*
X008248Y018244D01*
X008248Y017782D02*
X007786Y017782D01*
X007786Y018244D01*
X008248Y018244D01*
X008248Y017832D02*
X007786Y017832D01*
X007786Y017882D02*
X008248Y017882D01*
X008248Y017932D02*
X007786Y017932D01*
X007786Y017982D02*
X008248Y017982D01*
X008248Y018032D02*
X007786Y018032D01*
X007786Y018082D02*
X008248Y018082D01*
X008248Y018132D02*
X007786Y018132D01*
X007786Y018182D02*
X008248Y018182D01*
X008248Y018232D02*
X007786Y018232D01*
X009074Y018244D02*
X009074Y017782D01*
X008612Y017782D01*
X008612Y018244D01*
X009074Y018244D01*
X009074Y017832D02*
X008612Y017832D01*
X008612Y017882D02*
X009074Y017882D01*
X009074Y017932D02*
X008612Y017932D01*
X008612Y017982D02*
X009074Y017982D01*
X009074Y018032D02*
X008612Y018032D01*
X008612Y018082D02*
X009074Y018082D01*
X009074Y018132D02*
X008612Y018132D01*
X008612Y018182D02*
X009074Y018182D01*
X009074Y018232D02*
X008612Y018232D01*
X009024Y019132D02*
X009024Y019594D01*
X009024Y019132D02*
X008562Y019132D01*
X008562Y019594D01*
X009024Y019594D01*
X009024Y019182D02*
X008562Y019182D01*
X008562Y019232D02*
X009024Y019232D01*
X009024Y019282D02*
X008562Y019282D01*
X008562Y019332D02*
X009024Y019332D01*
X009024Y019382D02*
X008562Y019382D01*
X008562Y019432D02*
X009024Y019432D01*
X009024Y019482D02*
X008562Y019482D01*
X008562Y019532D02*
X009024Y019532D01*
X009024Y019582D02*
X008562Y019582D01*
X008198Y019594D02*
X008198Y019132D01*
X007736Y019132D01*
X007736Y019594D01*
X008198Y019594D01*
X008198Y019182D02*
X007736Y019182D01*
X007736Y019232D02*
X008198Y019232D01*
X008198Y019282D02*
X007736Y019282D01*
X007736Y019332D02*
X008198Y019332D01*
X008198Y019382D02*
X007736Y019382D01*
X007736Y019432D02*
X008198Y019432D01*
X008198Y019482D02*
X007736Y019482D01*
X007736Y019532D02*
X008198Y019532D01*
X008198Y019582D02*
X007736Y019582D01*
D15*
X009507Y019055D02*
X010005Y019055D01*
X009507Y019055D02*
X009507Y019671D01*
X010005Y019671D01*
X010005Y019055D01*
X010005Y019109D02*
X009507Y019109D01*
X009507Y019163D02*
X010005Y019163D01*
X010005Y019217D02*
X009507Y019217D01*
X009507Y019271D02*
X010005Y019271D01*
X010005Y019325D02*
X009507Y019325D01*
X009507Y019379D02*
X010005Y019379D01*
X010005Y019433D02*
X009507Y019433D01*
X009507Y019487D02*
X010005Y019487D01*
X010005Y019541D02*
X009507Y019541D01*
X009507Y019595D02*
X010005Y019595D01*
X010005Y019649D02*
X009507Y019649D01*
X010255Y019055D02*
X010753Y019055D01*
X010255Y019055D02*
X010255Y019671D01*
X010753Y019671D01*
X010753Y019055D01*
X010753Y019109D02*
X010255Y019109D01*
X010255Y019163D02*
X010753Y019163D01*
X010753Y019217D02*
X010255Y019217D01*
X010255Y019271D02*
X010753Y019271D01*
X010753Y019325D02*
X010255Y019325D01*
X010255Y019379D02*
X010753Y019379D01*
X010753Y019433D02*
X010255Y019433D01*
X010255Y019487D02*
X010753Y019487D01*
X010753Y019541D02*
X010255Y019541D01*
X010255Y019595D02*
X010753Y019595D01*
X010753Y019649D02*
X010255Y019649D01*
X010255Y017705D02*
X010753Y017705D01*
X010255Y017705D02*
X010255Y018321D01*
X010753Y018321D01*
X010753Y017705D01*
X010753Y017759D02*
X010255Y017759D01*
X010255Y017813D02*
X010753Y017813D01*
X010753Y017867D02*
X010255Y017867D01*
X010255Y017921D02*
X010753Y017921D01*
X010753Y017975D02*
X010255Y017975D01*
X010255Y018029D02*
X010753Y018029D01*
X010753Y018083D02*
X010255Y018083D01*
X010255Y018137D02*
X010753Y018137D01*
X010753Y018191D02*
X010255Y018191D01*
X010255Y018245D02*
X010753Y018245D01*
X010753Y018299D02*
X010255Y018299D01*
X010005Y017705D02*
X009507Y017705D01*
X009507Y018321D01*
X010005Y018321D01*
X010005Y017705D01*
X010005Y017759D02*
X009507Y017759D01*
X009507Y017813D02*
X010005Y017813D01*
X010005Y017867D02*
X009507Y017867D01*
X009507Y017921D02*
X010005Y017921D01*
X010005Y017975D02*
X009507Y017975D01*
X009507Y018029D02*
X010005Y018029D01*
X010005Y018083D02*
X009507Y018083D01*
X009507Y018137D02*
X010005Y018137D01*
X010005Y018191D02*
X009507Y018191D01*
X009507Y018245D02*
X010005Y018245D01*
X010005Y018299D02*
X009507Y018299D01*
X009507Y016455D02*
X010005Y016455D01*
X009507Y016455D02*
X009507Y017071D01*
X010005Y017071D01*
X010005Y016455D01*
X010005Y016509D02*
X009507Y016509D01*
X009507Y016563D02*
X010005Y016563D01*
X010005Y016617D02*
X009507Y016617D01*
X009507Y016671D02*
X010005Y016671D01*
X010005Y016725D02*
X009507Y016725D01*
X009507Y016779D02*
X010005Y016779D01*
X010005Y016833D02*
X009507Y016833D01*
X009507Y016887D02*
X010005Y016887D01*
X010005Y016941D02*
X009507Y016941D01*
X009507Y016995D02*
X010005Y016995D01*
X010005Y017049D02*
X009507Y017049D01*
X010255Y016455D02*
X010753Y016455D01*
X010255Y016455D02*
X010255Y017071D01*
X010753Y017071D01*
X010753Y016455D01*
X010753Y016509D02*
X010255Y016509D01*
X010255Y016563D02*
X010753Y016563D01*
X010753Y016617D02*
X010255Y016617D01*
X010255Y016671D02*
X010753Y016671D01*
X010753Y016725D02*
X010255Y016725D01*
X010255Y016779D02*
X010753Y016779D01*
X010753Y016833D02*
X010255Y016833D01*
X010255Y016887D02*
X010753Y016887D01*
X010753Y016941D02*
X010255Y016941D01*
X010255Y016995D02*
X010753Y016995D01*
X010753Y017049D02*
X010255Y017049D01*
X010255Y015255D02*
X010753Y015255D01*
X010255Y015255D02*
X010255Y015871D01*
X010753Y015871D01*
X010753Y015255D01*
X010753Y015309D02*
X010255Y015309D01*
X010255Y015363D02*
X010753Y015363D01*
X010753Y015417D02*
X010255Y015417D01*
X010255Y015471D02*
X010753Y015471D01*
X010753Y015525D02*
X010255Y015525D01*
X010255Y015579D02*
X010753Y015579D01*
X010753Y015633D02*
X010255Y015633D01*
X010255Y015687D02*
X010753Y015687D01*
X010753Y015741D02*
X010255Y015741D01*
X010255Y015795D02*
X010753Y015795D01*
X010753Y015849D02*
X010255Y015849D01*
X010005Y015255D02*
X009507Y015255D01*
X009507Y015871D01*
X010005Y015871D01*
X010005Y015255D01*
X010005Y015309D02*
X009507Y015309D01*
X009507Y015363D02*
X010005Y015363D01*
X010005Y015417D02*
X009507Y015417D01*
X009507Y015471D02*
X010005Y015471D01*
X010005Y015525D02*
X009507Y015525D01*
X009507Y015579D02*
X010005Y015579D01*
X010005Y015633D02*
X009507Y015633D01*
X009507Y015687D02*
X010005Y015687D01*
X010005Y015741D02*
X009507Y015741D01*
X009507Y015795D02*
X010005Y015795D01*
X010005Y015849D02*
X009507Y015849D01*
X005603Y017755D02*
X005105Y017755D01*
X005105Y018371D01*
X005603Y018371D01*
X005603Y017755D01*
X005603Y017809D02*
X005105Y017809D01*
X005105Y017863D02*
X005603Y017863D01*
X005603Y017917D02*
X005105Y017917D01*
X005105Y017971D02*
X005603Y017971D01*
X005603Y018025D02*
X005105Y018025D01*
X005105Y018079D02*
X005603Y018079D01*
X005603Y018133D02*
X005105Y018133D01*
X005105Y018187D02*
X005603Y018187D01*
X005603Y018241D02*
X005105Y018241D01*
X005105Y018295D02*
X005603Y018295D01*
X005603Y018349D02*
X005105Y018349D01*
X004855Y017755D02*
X004357Y017755D01*
X004357Y018371D01*
X004855Y018371D01*
X004855Y017755D01*
X004855Y017809D02*
X004357Y017809D01*
X004357Y017863D02*
X004855Y017863D01*
X004855Y017917D02*
X004357Y017917D01*
X004357Y017971D02*
X004855Y017971D01*
X004855Y018025D02*
X004357Y018025D01*
X004357Y018079D02*
X004855Y018079D01*
X004855Y018133D02*
X004357Y018133D01*
X004357Y018187D02*
X004855Y018187D01*
X004855Y018241D02*
X004357Y018241D01*
X004357Y018295D02*
X004855Y018295D01*
X004855Y018349D02*
X004357Y018349D01*
X004357Y018705D02*
X004855Y018705D01*
X004357Y018705D02*
X004357Y019321D01*
X004855Y019321D01*
X004855Y018705D01*
X004855Y018759D02*
X004357Y018759D01*
X004357Y018813D02*
X004855Y018813D01*
X004855Y018867D02*
X004357Y018867D01*
X004357Y018921D02*
X004855Y018921D01*
X004855Y018975D02*
X004357Y018975D01*
X004357Y019029D02*
X004855Y019029D01*
X004855Y019083D02*
X004357Y019083D01*
X004357Y019137D02*
X004855Y019137D01*
X004855Y019191D02*
X004357Y019191D01*
X004357Y019245D02*
X004855Y019245D01*
X004855Y019299D02*
X004357Y019299D01*
X005105Y018705D02*
X005603Y018705D01*
X005105Y018705D02*
X005105Y019321D01*
X005603Y019321D01*
X005603Y018705D01*
X005603Y018759D02*
X005105Y018759D01*
X005105Y018813D02*
X005603Y018813D01*
X005603Y018867D02*
X005105Y018867D01*
X005105Y018921D02*
X005603Y018921D01*
X005603Y018975D02*
X005105Y018975D01*
X005105Y019029D02*
X005603Y019029D01*
X005603Y019083D02*
X005105Y019083D01*
X005105Y019137D02*
X005603Y019137D01*
X005603Y019191D02*
X005105Y019191D01*
X005105Y019245D02*
X005603Y019245D01*
X005603Y019299D02*
X005105Y019299D01*
X006692Y020990D02*
X006692Y021488D01*
X007268Y021488D01*
X007268Y020990D01*
X006692Y020990D01*
X006692Y021044D02*
X007268Y021044D01*
X007268Y021098D02*
X006692Y021098D01*
X006692Y021152D02*
X007268Y021152D01*
X007268Y021206D02*
X006692Y021206D01*
X006692Y021260D02*
X007268Y021260D01*
X007268Y021314D02*
X006692Y021314D01*
X006692Y021368D02*
X007268Y021368D01*
X007268Y021422D02*
X006692Y021422D01*
X006692Y021476D02*
X007268Y021476D01*
X006692Y021738D02*
X006692Y022236D01*
X007268Y022236D01*
X007268Y021738D01*
X006692Y021738D01*
X006692Y021792D02*
X007268Y021792D01*
X007268Y021846D02*
X006692Y021846D01*
X006692Y021900D02*
X007268Y021900D01*
X007268Y021954D02*
X006692Y021954D01*
X006692Y022008D02*
X007268Y022008D01*
X007268Y022062D02*
X006692Y022062D01*
X006692Y022116D02*
X007268Y022116D01*
X007268Y022170D02*
X006692Y022170D01*
X006692Y022224D02*
X007268Y022224D01*
X021768Y014786D02*
X021768Y014288D01*
X021192Y014288D01*
X021192Y014786D01*
X021768Y014786D01*
X021768Y014342D02*
X021192Y014342D01*
X021192Y014396D02*
X021768Y014396D01*
X021768Y014450D02*
X021192Y014450D01*
X021192Y014504D02*
X021768Y014504D01*
X021768Y014558D02*
X021192Y014558D01*
X021192Y014612D02*
X021768Y014612D01*
X021768Y014666D02*
X021192Y014666D01*
X021192Y014720D02*
X021768Y014720D01*
X021768Y014774D02*
X021192Y014774D01*
X021768Y014038D02*
X021768Y013540D01*
X021192Y013540D01*
X021192Y014038D01*
X021768Y014038D01*
X021768Y013594D02*
X021192Y013594D01*
X021192Y013648D02*
X021768Y013648D01*
X021768Y013702D02*
X021192Y013702D01*
X021192Y013756D02*
X021768Y013756D01*
X021768Y013810D02*
X021192Y013810D01*
X021192Y013864D02*
X021768Y013864D01*
X021768Y013918D02*
X021192Y013918D01*
X021192Y013972D02*
X021768Y013972D01*
X021768Y014026D02*
X021192Y014026D01*
X022857Y010851D02*
X023355Y010851D01*
X023355Y010275D01*
X022857Y010275D01*
X022857Y010851D01*
X022857Y010329D02*
X023355Y010329D01*
X023355Y010383D02*
X022857Y010383D01*
X022857Y010437D02*
X023355Y010437D01*
X023355Y010491D02*
X022857Y010491D01*
X022857Y010545D02*
X023355Y010545D01*
X023355Y010599D02*
X022857Y010599D01*
X022857Y010653D02*
X023355Y010653D01*
X023355Y010707D02*
X022857Y010707D01*
X022857Y010761D02*
X023355Y010761D01*
X023355Y010815D02*
X022857Y010815D01*
X023605Y010851D02*
X024103Y010851D01*
X024103Y010275D01*
X023605Y010275D01*
X023605Y010851D01*
X023605Y010329D02*
X024103Y010329D01*
X024103Y010383D02*
X023605Y010383D01*
X023605Y010437D02*
X024103Y010437D01*
X024103Y010491D02*
X023605Y010491D01*
X023605Y010545D02*
X024103Y010545D01*
X024103Y010599D02*
X023605Y010599D01*
X023605Y010653D02*
X024103Y010653D01*
X024103Y010707D02*
X023605Y010707D01*
X023605Y010761D02*
X024103Y010761D01*
X024103Y010815D02*
X023605Y010815D01*
X022692Y007786D02*
X022692Y007288D01*
X022692Y007786D02*
X023268Y007786D01*
X023268Y007288D01*
X022692Y007288D01*
X022692Y007342D02*
X023268Y007342D01*
X023268Y007396D02*
X022692Y007396D01*
X022692Y007450D02*
X023268Y007450D01*
X023268Y007504D02*
X022692Y007504D01*
X022692Y007558D02*
X023268Y007558D01*
X023268Y007612D02*
X022692Y007612D01*
X022692Y007666D02*
X023268Y007666D01*
X023268Y007720D02*
X022692Y007720D01*
X022692Y007774D02*
X023268Y007774D01*
X022692Y007038D02*
X022692Y006540D01*
X022692Y007038D02*
X023268Y007038D01*
X023268Y006540D01*
X022692Y006540D01*
X022692Y006594D02*
X023268Y006594D01*
X023268Y006648D02*
X022692Y006648D01*
X022692Y006702D02*
X023268Y006702D01*
X023268Y006756D02*
X022692Y006756D01*
X022692Y006810D02*
X023268Y006810D01*
X023268Y006864D02*
X022692Y006864D01*
X022692Y006918D02*
X023268Y006918D01*
X023268Y006972D02*
X022692Y006972D01*
X022692Y007026D02*
X023268Y007026D01*
X016268Y007038D02*
X016268Y006540D01*
X015692Y006540D01*
X015692Y007038D01*
X016268Y007038D01*
X016268Y006594D02*
X015692Y006594D01*
X015692Y006648D02*
X016268Y006648D01*
X016268Y006702D02*
X015692Y006702D01*
X015692Y006756D02*
X016268Y006756D01*
X016268Y006810D02*
X015692Y006810D01*
X015692Y006864D02*
X016268Y006864D01*
X016268Y006918D02*
X015692Y006918D01*
X015692Y006972D02*
X016268Y006972D01*
X016268Y007026D02*
X015692Y007026D01*
X016268Y007288D02*
X016268Y007786D01*
X016268Y007288D02*
X015692Y007288D01*
X015692Y007786D01*
X016268Y007786D01*
X016268Y007342D02*
X015692Y007342D01*
X015692Y007396D02*
X016268Y007396D01*
X016268Y007450D02*
X015692Y007450D01*
X015692Y007504D02*
X016268Y007504D01*
X016268Y007558D02*
X015692Y007558D01*
X015692Y007612D02*
X016268Y007612D01*
X016268Y007666D02*
X015692Y007666D01*
X015692Y007720D02*
X016268Y007720D01*
X016268Y007774D02*
X015692Y007774D01*
X014768Y007538D02*
X014768Y008036D01*
X014768Y007538D02*
X014192Y007538D01*
X014192Y008036D01*
X014768Y008036D01*
X014768Y007592D02*
X014192Y007592D01*
X014192Y007646D02*
X014768Y007646D01*
X014768Y007700D02*
X014192Y007700D01*
X014192Y007754D02*
X014768Y007754D01*
X014768Y007808D02*
X014192Y007808D01*
X014192Y007862D02*
X014768Y007862D01*
X014768Y007916D02*
X014192Y007916D01*
X014192Y007970D02*
X014768Y007970D01*
X014768Y008024D02*
X014192Y008024D01*
X014768Y007288D02*
X014768Y006790D01*
X014192Y006790D01*
X014192Y007288D01*
X014768Y007288D01*
X014768Y006844D02*
X014192Y006844D01*
X014192Y006898D02*
X014768Y006898D01*
X014768Y006952D02*
X014192Y006952D01*
X014192Y007006D02*
X014768Y007006D01*
X014768Y007060D02*
X014192Y007060D01*
X014192Y007114D02*
X014768Y007114D01*
X014768Y007168D02*
X014192Y007168D01*
X014192Y007222D02*
X014768Y007222D01*
X014768Y007276D02*
X014192Y007276D01*
X010453Y006721D02*
X009955Y006721D01*
X010453Y006721D02*
X010453Y006105D01*
X009955Y006105D01*
X009955Y006721D01*
X009955Y006159D02*
X010453Y006159D01*
X010453Y006213D02*
X009955Y006213D01*
X009955Y006267D02*
X010453Y006267D01*
X010453Y006321D02*
X009955Y006321D01*
X009955Y006375D02*
X010453Y006375D01*
X010453Y006429D02*
X009955Y006429D01*
X009955Y006483D02*
X010453Y006483D01*
X010453Y006537D02*
X009955Y006537D01*
X009955Y006591D02*
X010453Y006591D01*
X010453Y006645D02*
X009955Y006645D01*
X009955Y006699D02*
X010453Y006699D01*
X009705Y006721D02*
X009207Y006721D01*
X009705Y006721D02*
X009705Y006105D01*
X009207Y006105D01*
X009207Y006721D01*
X009207Y006159D02*
X009705Y006159D01*
X009705Y006213D02*
X009207Y006213D01*
X009207Y006267D02*
X009705Y006267D01*
X009705Y006321D02*
X009207Y006321D01*
X009207Y006375D02*
X009705Y006375D01*
X009705Y006429D02*
X009207Y006429D01*
X009207Y006483D02*
X009705Y006483D01*
X009705Y006537D02*
X009207Y006537D01*
X009207Y006591D02*
X009705Y006591D01*
X009705Y006645D02*
X009207Y006645D01*
X009207Y006699D02*
X009705Y006699D01*
X008853Y006125D02*
X008355Y006125D01*
X008355Y006701D01*
X008853Y006701D01*
X008853Y006125D01*
X008853Y006179D02*
X008355Y006179D01*
X008355Y006233D02*
X008853Y006233D01*
X008853Y006287D02*
X008355Y006287D01*
X008355Y006341D02*
X008853Y006341D01*
X008853Y006395D02*
X008355Y006395D01*
X008355Y006449D02*
X008853Y006449D01*
X008853Y006503D02*
X008355Y006503D01*
X008355Y006557D02*
X008853Y006557D01*
X008853Y006611D02*
X008355Y006611D01*
X008355Y006665D02*
X008853Y006665D01*
X008105Y006125D02*
X007607Y006125D01*
X007607Y006701D01*
X008105Y006701D01*
X008105Y006125D01*
X008105Y006179D02*
X007607Y006179D01*
X007607Y006233D02*
X008105Y006233D01*
X008105Y006287D02*
X007607Y006287D01*
X007607Y006341D02*
X008105Y006341D01*
X008105Y006395D02*
X007607Y006395D01*
X007607Y006449D02*
X008105Y006449D01*
X008105Y006503D02*
X007607Y006503D01*
X007607Y006557D02*
X008105Y006557D01*
X008105Y006611D02*
X007607Y006611D01*
X007607Y006665D02*
X008105Y006665D01*
X007203Y006721D02*
X006705Y006721D01*
X007203Y006721D02*
X007203Y006105D01*
X006705Y006105D01*
X006705Y006721D01*
X006705Y006159D02*
X007203Y006159D01*
X007203Y006213D02*
X006705Y006213D01*
X006705Y006267D02*
X007203Y006267D01*
X007203Y006321D02*
X006705Y006321D01*
X006705Y006375D02*
X007203Y006375D01*
X007203Y006429D02*
X006705Y006429D01*
X006705Y006483D02*
X007203Y006483D01*
X007203Y006537D02*
X006705Y006537D01*
X006705Y006591D02*
X007203Y006591D01*
X007203Y006645D02*
X006705Y006645D01*
X006705Y006699D02*
X007203Y006699D01*
X006455Y006721D02*
X005957Y006721D01*
X006455Y006721D02*
X006455Y006105D01*
X005957Y006105D01*
X005957Y006721D01*
X005957Y006159D02*
X006455Y006159D01*
X006455Y006213D02*
X005957Y006213D01*
X005957Y006267D02*
X006455Y006267D01*
X006455Y006321D02*
X005957Y006321D01*
X005957Y006375D02*
X006455Y006375D01*
X006455Y006429D02*
X005957Y006429D01*
X005957Y006483D02*
X006455Y006483D01*
X006455Y006537D02*
X005957Y006537D01*
X005957Y006591D02*
X006455Y006591D01*
X006455Y006645D02*
X005957Y006645D01*
X005957Y006699D02*
X006455Y006699D01*
X005503Y006105D02*
X005005Y006105D01*
X005005Y006721D01*
X005503Y006721D01*
X005503Y006105D01*
X005503Y006159D02*
X005005Y006159D01*
X005005Y006213D02*
X005503Y006213D01*
X005503Y006267D02*
X005005Y006267D01*
X005005Y006321D02*
X005503Y006321D01*
X005503Y006375D02*
X005005Y006375D01*
X005005Y006429D02*
X005503Y006429D01*
X005503Y006483D02*
X005005Y006483D01*
X005005Y006537D02*
X005503Y006537D01*
X005503Y006591D02*
X005005Y006591D01*
X005005Y006645D02*
X005503Y006645D01*
X005503Y006699D02*
X005005Y006699D01*
X004755Y006105D02*
X004257Y006105D01*
X004257Y006721D01*
X004755Y006721D01*
X004755Y006105D01*
X004755Y006159D02*
X004257Y006159D01*
X004257Y006213D02*
X004755Y006213D01*
X004755Y006267D02*
X004257Y006267D01*
X004257Y006321D02*
X004755Y006321D01*
X004755Y006375D02*
X004257Y006375D01*
X004257Y006429D02*
X004755Y006429D01*
X004755Y006483D02*
X004257Y006483D01*
X004257Y006537D02*
X004755Y006537D01*
X004755Y006591D02*
X004257Y006591D01*
X004257Y006645D02*
X004755Y006645D01*
X004755Y006699D02*
X004257Y006699D01*
X003953Y006721D02*
X003455Y006721D01*
X003953Y006721D02*
X003953Y006105D01*
X003455Y006105D01*
X003455Y006721D01*
X003455Y006159D02*
X003953Y006159D01*
X003953Y006213D02*
X003455Y006213D01*
X003455Y006267D02*
X003953Y006267D01*
X003953Y006321D02*
X003455Y006321D01*
X003455Y006375D02*
X003953Y006375D01*
X003953Y006429D02*
X003455Y006429D01*
X003455Y006483D02*
X003953Y006483D01*
X003953Y006537D02*
X003455Y006537D01*
X003455Y006591D02*
X003953Y006591D01*
X003953Y006645D02*
X003455Y006645D01*
X003455Y006699D02*
X003953Y006699D01*
X003205Y006721D02*
X002707Y006721D01*
X003205Y006721D02*
X003205Y006105D01*
X002707Y006105D01*
X002707Y006721D01*
X002707Y006159D02*
X003205Y006159D01*
X003205Y006213D02*
X002707Y006213D01*
X002707Y006267D02*
X003205Y006267D01*
X003205Y006321D02*
X002707Y006321D01*
X002707Y006375D02*
X003205Y006375D01*
X003205Y006429D02*
X002707Y006429D01*
X002707Y006483D02*
X003205Y006483D01*
X003205Y006537D02*
X002707Y006537D01*
X002707Y006591D02*
X003205Y006591D01*
X003205Y006645D02*
X002707Y006645D01*
X002707Y006699D02*
X003205Y006699D01*
X002253Y006125D02*
X001755Y006125D01*
X001755Y006701D01*
X002253Y006701D01*
X002253Y006125D01*
X002253Y006179D02*
X001755Y006179D01*
X001755Y006233D02*
X002253Y006233D01*
X002253Y006287D02*
X001755Y006287D01*
X001755Y006341D02*
X002253Y006341D01*
X002253Y006395D02*
X001755Y006395D01*
X001755Y006449D02*
X002253Y006449D01*
X002253Y006503D02*
X001755Y006503D01*
X001755Y006557D02*
X002253Y006557D01*
X002253Y006611D02*
X001755Y006611D01*
X001755Y006665D02*
X002253Y006665D01*
X001505Y006125D02*
X001007Y006125D01*
X001007Y006701D01*
X001505Y006701D01*
X001505Y006125D01*
X001505Y006179D02*
X001007Y006179D01*
X001007Y006233D02*
X001505Y006233D01*
X001505Y006287D02*
X001007Y006287D01*
X001007Y006341D02*
X001505Y006341D01*
X001505Y006395D02*
X001007Y006395D01*
X001007Y006449D02*
X001505Y006449D01*
X001505Y006503D02*
X001007Y006503D01*
X001007Y006557D02*
X001505Y006557D01*
X001505Y006611D02*
X001007Y006611D01*
X001007Y006665D02*
X001505Y006665D01*
D16*
X004312Y016217D02*
X004782Y016217D01*
X004312Y016217D02*
X004312Y016609D01*
X004782Y016609D01*
X004782Y016217D01*
X004782Y016259D02*
X004312Y016259D01*
X004312Y016301D02*
X004782Y016301D01*
X004782Y016343D02*
X004312Y016343D01*
X004312Y016385D02*
X004782Y016385D01*
X004782Y016427D02*
X004312Y016427D01*
X004312Y016469D02*
X004782Y016469D01*
X004782Y016511D02*
X004312Y016511D01*
X004312Y016553D02*
X004782Y016553D01*
X004782Y016595D02*
X004312Y016595D01*
X004390Y017067D02*
X004782Y017067D01*
X004390Y017067D02*
X004390Y017459D01*
X004782Y017459D01*
X004782Y017067D01*
X004782Y017109D02*
X004390Y017109D01*
X004390Y017151D02*
X004782Y017151D01*
X004782Y017193D02*
X004390Y017193D01*
X004390Y017235D02*
X004782Y017235D01*
X004782Y017277D02*
X004390Y017277D01*
X004390Y017319D02*
X004782Y017319D01*
X004782Y017361D02*
X004390Y017361D01*
X004390Y017403D02*
X004782Y017403D01*
X004782Y017445D02*
X004390Y017445D01*
X005178Y017067D02*
X005570Y017067D01*
X005178Y017067D02*
X005178Y017459D01*
X005570Y017459D01*
X005570Y017067D01*
X005570Y017109D02*
X005178Y017109D01*
X005178Y017151D02*
X005570Y017151D01*
X005570Y017193D02*
X005178Y017193D01*
X005178Y017235D02*
X005570Y017235D01*
X005570Y017277D02*
X005178Y017277D01*
X005178Y017319D02*
X005570Y017319D01*
X005570Y017361D02*
X005178Y017361D01*
X005178Y017403D02*
X005570Y017403D01*
X005570Y017445D02*
X005178Y017445D01*
X005178Y016217D02*
X005648Y016217D01*
X005178Y016217D02*
X005178Y016609D01*
X005648Y016609D01*
X005648Y016217D01*
X005648Y016259D02*
X005178Y016259D01*
X005178Y016301D02*
X005648Y016301D01*
X005648Y016343D02*
X005178Y016343D01*
X005178Y016385D02*
X005648Y016385D01*
X005648Y016427D02*
X005178Y016427D01*
X005178Y016469D02*
X005648Y016469D01*
X005648Y016511D02*
X005178Y016511D01*
X005178Y016553D02*
X005648Y016553D01*
X005648Y016595D02*
X005178Y016595D01*
X005178Y019617D02*
X005570Y019617D01*
X005178Y019617D02*
X005178Y020009D01*
X005570Y020009D01*
X005570Y019617D01*
X005570Y019659D02*
X005178Y019659D01*
X005178Y019701D02*
X005570Y019701D01*
X005570Y019743D02*
X005178Y019743D01*
X005178Y019785D02*
X005570Y019785D01*
X005570Y019827D02*
X005178Y019827D01*
X005178Y019869D02*
X005570Y019869D01*
X005570Y019911D02*
X005178Y019911D01*
X005178Y019953D02*
X005570Y019953D01*
X005570Y019995D02*
X005178Y019995D01*
X004782Y019617D02*
X004390Y019617D01*
X004390Y020009D01*
X004782Y020009D01*
X004782Y019617D01*
X004782Y019659D02*
X004390Y019659D01*
X004390Y019701D02*
X004782Y019701D01*
X004782Y019743D02*
X004390Y019743D01*
X004390Y019785D02*
X004782Y019785D01*
X004782Y019827D02*
X004390Y019827D01*
X004390Y019869D02*
X004782Y019869D01*
X004782Y019911D02*
X004390Y019911D01*
X004390Y019953D02*
X004782Y019953D01*
X004782Y019995D02*
X004390Y019995D01*
X022034Y014581D02*
X022034Y014111D01*
X022034Y014581D02*
X022426Y014581D01*
X022426Y014111D01*
X022034Y014111D01*
X022034Y014153D02*
X022426Y014153D01*
X022426Y014195D02*
X022034Y014195D01*
X022034Y014237D02*
X022426Y014237D01*
X022426Y014279D02*
X022034Y014279D01*
X022034Y014321D02*
X022426Y014321D01*
X022426Y014363D02*
X022034Y014363D01*
X022034Y014405D02*
X022426Y014405D01*
X022426Y014447D02*
X022034Y014447D01*
X022034Y014489D02*
X022426Y014489D01*
X022426Y014531D02*
X022034Y014531D01*
X022034Y014573D02*
X022426Y014573D01*
X022034Y013715D02*
X022034Y013245D01*
X022034Y013715D02*
X022426Y013715D01*
X022426Y013245D01*
X022034Y013245D01*
X022034Y013287D02*
X022426Y013287D01*
X022426Y013329D02*
X022034Y013329D01*
X022034Y013371D02*
X022426Y013371D01*
X022426Y013413D02*
X022034Y013413D01*
X022034Y013455D02*
X022426Y013455D01*
X022426Y013497D02*
X022034Y013497D01*
X022034Y013539D02*
X022426Y013539D01*
X022426Y013581D02*
X022034Y013581D01*
X022034Y013623D02*
X022426Y013623D01*
X022426Y013665D02*
X022034Y013665D01*
X022034Y013707D02*
X022426Y013707D01*
D17*
X020576Y012404D02*
X020534Y012404D01*
X020576Y012404D02*
X020576Y011988D01*
X020534Y011988D01*
X020534Y012404D01*
X020534Y012161D02*
X020576Y012161D01*
X020576Y012334D02*
X020534Y012334D01*
X020261Y012404D02*
X020219Y012404D01*
X020261Y012404D02*
X020261Y011988D01*
X020219Y011988D01*
X020219Y012404D01*
X020219Y012161D02*
X020261Y012161D01*
X020261Y012334D02*
X020219Y012334D01*
X019946Y012404D02*
X019904Y012404D01*
X019946Y012404D02*
X019946Y011988D01*
X019904Y011988D01*
X019904Y012404D01*
X019904Y012161D02*
X019946Y012161D01*
X019946Y012334D02*
X019904Y012334D01*
X019631Y012404D02*
X019589Y012404D01*
X019631Y012404D02*
X019631Y011988D01*
X019589Y011988D01*
X019589Y012404D01*
X019589Y012161D02*
X019631Y012161D01*
X019631Y012334D02*
X019589Y012334D01*
X019316Y012404D02*
X019274Y012404D01*
X019316Y012404D02*
X019316Y011988D01*
X019274Y011988D01*
X019274Y012404D01*
X019274Y012161D02*
X019316Y012161D01*
X019316Y012334D02*
X019274Y012334D01*
X019001Y012404D02*
X018959Y012404D01*
X019001Y012404D02*
X019001Y011988D01*
X018959Y011988D01*
X018959Y012404D01*
X018959Y012161D02*
X019001Y012161D01*
X019001Y012334D02*
X018959Y012334D01*
X018686Y012404D02*
X018644Y012404D01*
X018686Y012404D02*
X018686Y011988D01*
X018644Y011988D01*
X018644Y012404D01*
X018644Y012161D02*
X018686Y012161D01*
X018686Y012334D02*
X018644Y012334D01*
X018371Y012404D02*
X018329Y012404D01*
X018371Y012404D02*
X018371Y011988D01*
X018329Y011988D01*
X018329Y012404D01*
X018329Y012161D02*
X018371Y012161D01*
X018371Y012334D02*
X018329Y012334D01*
X018056Y012404D02*
X018014Y012404D01*
X018056Y012404D02*
X018056Y011988D01*
X018014Y011988D01*
X018014Y012404D01*
X018014Y012161D02*
X018056Y012161D01*
X018056Y012334D02*
X018014Y012334D01*
X017741Y012404D02*
X017699Y012404D01*
X017741Y012404D02*
X017741Y011988D01*
X017699Y011988D01*
X017699Y012404D01*
X017699Y012161D02*
X017741Y012161D01*
X017741Y012334D02*
X017699Y012334D01*
X017426Y012404D02*
X017384Y012404D01*
X017426Y012404D02*
X017426Y011988D01*
X017384Y011988D01*
X017384Y012404D01*
X017384Y012161D02*
X017426Y012161D01*
X017426Y012334D02*
X017384Y012334D01*
X016905Y011508D02*
X016489Y011508D01*
X016905Y011508D02*
X016905Y011466D01*
X016489Y011466D01*
X016489Y011508D01*
X016489Y011194D02*
X016905Y011194D01*
X016905Y011152D01*
X016489Y011152D01*
X016489Y011194D01*
X016489Y010879D02*
X016905Y010879D01*
X016905Y010837D01*
X016489Y010837D01*
X016489Y010879D01*
X016489Y010564D02*
X016905Y010564D01*
X016905Y010522D01*
X016489Y010522D01*
X016489Y010564D01*
X016489Y010249D02*
X016905Y010249D01*
X016905Y010207D01*
X016489Y010207D01*
X016489Y010249D01*
X016489Y009934D02*
X016905Y009934D01*
X016905Y009892D01*
X016489Y009892D01*
X016489Y009934D01*
X016489Y009619D02*
X016905Y009619D01*
X016905Y009577D01*
X016489Y009577D01*
X016489Y009619D01*
X016489Y009304D02*
X016905Y009304D01*
X016905Y009262D01*
X016489Y009262D01*
X016489Y009304D01*
X016489Y008989D02*
X016905Y008989D01*
X016905Y008947D01*
X016489Y008947D01*
X016489Y008989D01*
X016489Y008674D02*
X016905Y008674D01*
X016905Y008632D01*
X016489Y008632D01*
X016489Y008674D01*
X016489Y008359D02*
X016905Y008359D01*
X016905Y008317D01*
X016489Y008317D01*
X016489Y008359D01*
X017384Y007837D02*
X017426Y007837D01*
X017426Y007421D01*
X017384Y007421D01*
X017384Y007837D01*
X017384Y007594D02*
X017426Y007594D01*
X017426Y007767D02*
X017384Y007767D01*
X017699Y007837D02*
X017741Y007837D01*
X017741Y007421D01*
X017699Y007421D01*
X017699Y007837D01*
X017699Y007594D02*
X017741Y007594D01*
X017741Y007767D02*
X017699Y007767D01*
X018014Y007837D02*
X018056Y007837D01*
X018056Y007421D01*
X018014Y007421D01*
X018014Y007837D01*
X018014Y007594D02*
X018056Y007594D01*
X018056Y007767D02*
X018014Y007767D01*
X018329Y007837D02*
X018371Y007837D01*
X018371Y007421D01*
X018329Y007421D01*
X018329Y007837D01*
X018329Y007594D02*
X018371Y007594D01*
X018371Y007767D02*
X018329Y007767D01*
X018644Y007837D02*
X018686Y007837D01*
X018686Y007421D01*
X018644Y007421D01*
X018644Y007837D01*
X018644Y007594D02*
X018686Y007594D01*
X018686Y007767D02*
X018644Y007767D01*
X018959Y007837D02*
X019001Y007837D01*
X019001Y007421D01*
X018959Y007421D01*
X018959Y007837D01*
X018959Y007594D02*
X019001Y007594D01*
X019001Y007767D02*
X018959Y007767D01*
X019274Y007837D02*
X019316Y007837D01*
X019316Y007421D01*
X019274Y007421D01*
X019274Y007837D01*
X019274Y007594D02*
X019316Y007594D01*
X019316Y007767D02*
X019274Y007767D01*
X019589Y007837D02*
X019631Y007837D01*
X019631Y007421D01*
X019589Y007421D01*
X019589Y007837D01*
X019589Y007594D02*
X019631Y007594D01*
X019631Y007767D02*
X019589Y007767D01*
X019904Y007837D02*
X019946Y007837D01*
X019946Y007421D01*
X019904Y007421D01*
X019904Y007837D01*
X019904Y007594D02*
X019946Y007594D01*
X019946Y007767D02*
X019904Y007767D01*
X020219Y007837D02*
X020261Y007837D01*
X020261Y007421D01*
X020219Y007421D01*
X020219Y007837D01*
X020219Y007594D02*
X020261Y007594D01*
X020261Y007767D02*
X020219Y007767D01*
X020534Y007837D02*
X020576Y007837D01*
X020576Y007421D01*
X020534Y007421D01*
X020534Y007837D01*
X020534Y007594D02*
X020576Y007594D01*
X020576Y007767D02*
X020534Y007767D01*
X021055Y008359D02*
X021471Y008359D01*
X021471Y008317D01*
X021055Y008317D01*
X021055Y008359D01*
X021055Y008674D02*
X021471Y008674D01*
X021471Y008632D01*
X021055Y008632D01*
X021055Y008674D01*
X021055Y008989D02*
X021471Y008989D01*
X021471Y008947D01*
X021055Y008947D01*
X021055Y008989D01*
X021055Y009304D02*
X021471Y009304D01*
X021471Y009262D01*
X021055Y009262D01*
X021055Y009304D01*
X021055Y009619D02*
X021471Y009619D01*
X021471Y009577D01*
X021055Y009577D01*
X021055Y009619D01*
X021055Y009934D02*
X021471Y009934D01*
X021471Y009892D01*
X021055Y009892D01*
X021055Y009934D01*
X021055Y010249D02*
X021471Y010249D01*
X021471Y010207D01*
X021055Y010207D01*
X021055Y010249D01*
X021055Y010564D02*
X021471Y010564D01*
X021471Y010522D01*
X021055Y010522D01*
X021055Y010564D01*
X021055Y010879D02*
X021471Y010879D01*
X021471Y010837D01*
X021055Y010837D01*
X021055Y010879D01*
X021055Y011194D02*
X021471Y011194D01*
X021471Y011152D01*
X021055Y011152D01*
X021055Y011194D01*
X021055Y011508D02*
X021471Y011508D01*
X021471Y011466D01*
X021055Y011466D01*
X021055Y011508D01*
D18*
X018980Y009913D03*
D19*
X003689Y019270D02*
X003689Y019874D01*
X003689Y019270D02*
X002771Y019270D01*
X002771Y019874D01*
X003689Y019874D01*
X003689Y019336D02*
X002771Y019336D01*
X002771Y019402D02*
X003689Y019402D01*
X003689Y019468D02*
X002771Y019468D01*
X002771Y019534D02*
X003689Y019534D01*
X003689Y019600D02*
X002771Y019600D01*
X002771Y019666D02*
X003689Y019666D01*
X003689Y019732D02*
X002771Y019732D01*
X002771Y019798D02*
X003689Y019798D01*
X003689Y019864D02*
X002771Y019864D01*
X002771Y020451D02*
X002771Y021055D01*
X003689Y021055D01*
X003689Y020451D01*
X002771Y020451D01*
X002771Y020517D02*
X003689Y020517D01*
X003689Y020583D02*
X002771Y020583D01*
X002771Y020649D02*
X003689Y020649D01*
X003689Y020715D02*
X002771Y020715D01*
X002771Y020781D02*
X003689Y020781D01*
X003689Y020847D02*
X002771Y020847D01*
X002771Y020913D02*
X003689Y020913D01*
X003689Y020979D02*
X002771Y020979D01*
X002771Y021045D02*
X003689Y021045D01*
D20*
X011685Y009392D02*
X011685Y009182D01*
X011685Y009392D02*
X012151Y009392D01*
X012151Y009182D01*
X011685Y009182D01*
X011685Y009227D02*
X012151Y009227D01*
X012151Y009272D02*
X011685Y009272D01*
X011685Y009317D02*
X012151Y009317D01*
X012151Y009362D02*
X011685Y009362D01*
X011685Y009018D02*
X011685Y008808D01*
X011685Y009018D02*
X012151Y009018D01*
X012151Y008808D01*
X011685Y008808D01*
X011685Y008853D02*
X012151Y008853D01*
X012151Y008898D02*
X011685Y008898D01*
X011685Y008943D02*
X012151Y008943D01*
X012151Y008988D02*
X011685Y008988D01*
X011685Y008644D02*
X011685Y008434D01*
X011685Y008644D02*
X012151Y008644D01*
X012151Y008434D01*
X011685Y008434D01*
X011685Y008479D02*
X012151Y008479D01*
X012151Y008524D02*
X011685Y008524D01*
X011685Y008569D02*
X012151Y008569D01*
X012151Y008614D02*
X011685Y008614D01*
X012709Y008644D02*
X012709Y008434D01*
X012709Y008644D02*
X013175Y008644D01*
X013175Y008434D01*
X012709Y008434D01*
X012709Y008479D02*
X013175Y008479D01*
X013175Y008524D02*
X012709Y008524D01*
X012709Y008569D02*
X013175Y008569D01*
X013175Y008614D02*
X012709Y008614D01*
X012709Y009182D02*
X012709Y009392D01*
X013175Y009392D01*
X013175Y009182D01*
X012709Y009182D01*
X012709Y009227D02*
X013175Y009227D01*
X013175Y009272D02*
X012709Y009272D01*
X012709Y009317D02*
X013175Y009317D01*
X013175Y009362D02*
X012709Y009362D01*
D21*
X001340Y003033D02*
X001340Y002733D01*
X003120Y002733D02*
X003120Y003033D01*
X003120Y005293D02*
X003120Y005593D01*
X001340Y005593D02*
X001340Y005293D01*
X008340Y005293D02*
X008340Y005593D01*
X010120Y005593D02*
X010120Y005293D01*
X010120Y003033D02*
X010120Y002733D01*
X011480Y002663D02*
X011480Y002963D01*
X012480Y002963D02*
X012480Y002663D01*
X013480Y002663D02*
X013480Y002963D01*
X014480Y002963D02*
X014480Y002663D01*
X015480Y002663D02*
X015480Y002963D01*
X016480Y002963D02*
X016480Y002663D01*
X017480Y002663D02*
X017480Y002963D01*
X018480Y002963D02*
X018480Y002663D01*
X020480Y002663D02*
X020480Y002963D01*
X021480Y002963D02*
X021480Y002663D01*
X022480Y002663D02*
X022480Y002963D01*
X023480Y002963D02*
X023480Y002663D01*
X024480Y002663D02*
X024480Y002963D01*
X025480Y002963D02*
X025480Y002663D01*
X008340Y002733D02*
X008340Y003033D01*
X004560Y021973D02*
X004260Y021973D01*
X002000Y021973D02*
X001700Y021973D01*
X001700Y023753D02*
X002000Y023753D01*
X004260Y023753D02*
X004560Y023753D01*
X008480Y025113D02*
X008480Y025413D01*
X009480Y025413D02*
X009480Y025113D01*
X010480Y025113D02*
X010480Y025413D01*
X011480Y025413D02*
X011480Y025113D01*
X012480Y025113D02*
X012480Y025413D01*
X013480Y025413D02*
X013480Y025113D01*
X014480Y025113D02*
X014480Y025413D01*
X015480Y025413D02*
X015480Y025113D01*
X016480Y025113D02*
X016480Y025413D01*
X017480Y025413D02*
X017480Y025113D01*
X018480Y025113D02*
X018480Y025413D01*
X019480Y025413D02*
X019480Y025113D01*
X020480Y025113D02*
X020480Y025413D01*
X021480Y025413D02*
X021480Y025113D01*
X022480Y025113D02*
X022480Y025413D01*
X023480Y025413D02*
X023480Y025113D01*
X024480Y025113D02*
X024480Y025413D01*
X025480Y025413D02*
X025480Y025113D01*
D22*
X020298Y014861D02*
X019890Y014861D01*
X019890Y015369D01*
X020298Y015369D01*
X020298Y014861D01*
X020298Y014905D02*
X019890Y014905D01*
X019890Y014949D02*
X020298Y014949D01*
X020298Y014993D02*
X019890Y014993D01*
X019890Y015037D02*
X020298Y015037D01*
X020298Y015081D02*
X019890Y015081D01*
X019890Y015125D02*
X020298Y015125D01*
X020298Y015169D02*
X019890Y015169D01*
X019890Y015213D02*
X020298Y015213D01*
X020298Y015257D02*
X019890Y015257D01*
X019890Y015301D02*
X020298Y015301D01*
X020298Y015345D02*
X019890Y015345D01*
X019570Y014861D02*
X019162Y014861D01*
X019162Y015369D01*
X019570Y015369D01*
X019570Y014861D01*
X019570Y014905D02*
X019162Y014905D01*
X019162Y014949D02*
X019570Y014949D01*
X019570Y014993D02*
X019162Y014993D01*
X019162Y015037D02*
X019570Y015037D01*
X019570Y015081D02*
X019162Y015081D01*
X019162Y015125D02*
X019570Y015125D01*
X019570Y015169D02*
X019162Y015169D01*
X019162Y015213D02*
X019570Y015213D01*
X019570Y015257D02*
X019162Y015257D01*
X019162Y015301D02*
X019570Y015301D01*
X019570Y015345D02*
X019162Y015345D01*
X019162Y013956D02*
X019570Y013956D01*
X019162Y013956D02*
X019162Y014464D01*
X019570Y014464D01*
X019570Y013956D01*
X019570Y014000D02*
X019162Y014000D01*
X019162Y014044D02*
X019570Y014044D01*
X019570Y014088D02*
X019162Y014088D01*
X019162Y014132D02*
X019570Y014132D01*
X019570Y014176D02*
X019162Y014176D01*
X019162Y014220D02*
X019570Y014220D01*
X019570Y014264D02*
X019162Y014264D01*
X019162Y014308D02*
X019570Y014308D01*
X019570Y014352D02*
X019162Y014352D01*
X019162Y014396D02*
X019570Y014396D01*
X019570Y014440D02*
X019162Y014440D01*
X019890Y013956D02*
X020298Y013956D01*
X019890Y013956D02*
X019890Y014464D01*
X020298Y014464D01*
X020298Y013956D01*
X020298Y014000D02*
X019890Y014000D01*
X019890Y014044D02*
X020298Y014044D01*
X020298Y014088D02*
X019890Y014088D01*
X019890Y014132D02*
X020298Y014132D01*
X020298Y014176D02*
X019890Y014176D01*
X019890Y014220D02*
X020298Y014220D01*
X020298Y014264D02*
X019890Y014264D01*
X019890Y014308D02*
X020298Y014308D01*
X020298Y014352D02*
X019890Y014352D01*
X019890Y014396D02*
X020298Y014396D01*
X020298Y014440D02*
X019890Y014440D01*
D23*
X023335Y014316D02*
X023335Y014848D01*
X024025Y014848D01*
X024025Y014316D01*
X023335Y014316D01*
X023335Y014374D02*
X024025Y014374D01*
X024025Y014432D02*
X023335Y014432D01*
X023335Y014490D02*
X024025Y014490D01*
X024025Y014548D02*
X023335Y014548D01*
X023335Y014606D02*
X024025Y014606D01*
X024025Y014664D02*
X023335Y014664D01*
X023335Y014722D02*
X024025Y014722D01*
X024025Y014780D02*
X023335Y014780D01*
X023335Y014838D02*
X024025Y014838D01*
X023335Y013509D02*
X023335Y012977D01*
X023335Y013509D02*
X024025Y013509D01*
X024025Y012977D01*
X023335Y012977D01*
X023335Y013035D02*
X024025Y013035D01*
X024025Y013093D02*
X023335Y013093D01*
X023335Y013151D02*
X024025Y013151D01*
X024025Y013209D02*
X023335Y013209D01*
X023335Y013267D02*
X024025Y013267D01*
X024025Y013325D02*
X023335Y013325D01*
X023335Y013383D02*
X024025Y013383D01*
X024025Y013441D02*
X023335Y013441D01*
X023335Y013499D02*
X024025Y013499D01*
D24*
X000790Y016833D02*
X000790Y017393D01*
X001310Y017393D01*
X001310Y016833D01*
X000790Y016833D01*
X000790Y016962D02*
X001310Y016962D01*
X001310Y017091D02*
X000790Y017091D01*
X000790Y017220D02*
X001310Y017220D01*
X001310Y017349D02*
X000790Y017349D01*
X000790Y019433D02*
X000790Y019993D01*
X001310Y019993D01*
X001310Y019433D01*
X000790Y019433D01*
X000790Y019562D02*
X001310Y019562D01*
X001310Y019691D02*
X000790Y019691D01*
X000790Y019820D02*
X001310Y019820D01*
X001310Y019949D02*
X000790Y019949D01*
D25*
X002066Y019537D02*
X002066Y019249D01*
X002066Y019537D02*
X002154Y019537D01*
X002154Y019249D01*
X002066Y019249D01*
X002066Y017577D02*
X002066Y017289D01*
X002066Y017577D02*
X002154Y017577D01*
X002154Y017289D01*
X002066Y017289D01*
D26*
X001850Y017818D02*
X001850Y017968D01*
X002370Y017968D01*
X002370Y017818D01*
X001850Y017818D01*
X001850Y017867D02*
X002370Y017867D01*
X002370Y017916D02*
X001850Y017916D01*
X001850Y017965D02*
X002370Y017965D01*
X001850Y018078D02*
X001850Y018228D01*
X002370Y018228D01*
X002370Y018078D01*
X001850Y018078D01*
X001850Y018127D02*
X002370Y018127D01*
X002370Y018176D02*
X001850Y018176D01*
X001850Y018225D02*
X002370Y018225D01*
X001850Y018338D02*
X001850Y018488D01*
X002370Y018488D01*
X002370Y018338D01*
X001850Y018338D01*
X001850Y018387D02*
X002370Y018387D01*
X002370Y018436D02*
X001850Y018436D01*
X001850Y018485D02*
X002370Y018485D01*
X001850Y018598D02*
X001850Y018748D01*
X002370Y018748D01*
X002370Y018598D01*
X001850Y018598D01*
X001850Y018647D02*
X002370Y018647D01*
X002370Y018696D02*
X001850Y018696D01*
X001850Y018745D02*
X002370Y018745D01*
X001850Y018858D02*
X001850Y019008D01*
X002370Y019008D01*
X002370Y018858D01*
X001850Y018858D01*
X001850Y018907D02*
X002370Y018907D01*
X002370Y018956D02*
X001850Y018956D01*
X001850Y019005D02*
X002370Y019005D01*
D27*
X000762Y019101D02*
X000762Y018525D01*
X000762Y019101D02*
X001338Y019101D01*
X001338Y018525D01*
X000762Y018525D01*
X000762Y018588D02*
X001338Y018588D01*
X001338Y018651D02*
X000762Y018651D01*
X000762Y018714D02*
X001338Y018714D01*
X001338Y018777D02*
X000762Y018777D01*
X000762Y018840D02*
X001338Y018840D01*
X001338Y018903D02*
X000762Y018903D01*
X000762Y018966D02*
X001338Y018966D01*
X001338Y019029D02*
X000762Y019029D01*
X000762Y019092D02*
X001338Y019092D01*
X000762Y018301D02*
X000762Y017725D01*
X000762Y018301D02*
X001338Y018301D01*
X001338Y017725D01*
X000762Y017725D01*
X000762Y017788D02*
X001338Y017788D01*
X001338Y017851D02*
X000762Y017851D01*
X000762Y017914D02*
X001338Y017914D01*
X001338Y017977D02*
X000762Y017977D01*
X000762Y018040D02*
X001338Y018040D01*
X001338Y018103D02*
X000762Y018103D01*
X000762Y018166D02*
X001338Y018166D01*
X001338Y018229D02*
X000762Y018229D01*
X000762Y018292D02*
X001338Y018292D01*
D28*
X002110Y017483D03*
X002110Y017383D03*
X001150Y017033D03*
X000950Y017033D03*
X002110Y019343D03*
X002110Y019443D03*
X001150Y019793D03*
X000950Y019793D03*
M02*
